M48
;Layer_Color=9474304
;FILE_FORMAT=2:5
INCH,LZ
;TYPE=PLATED
T1F00S00C0.03000
T2F00S00C0.03300
T3F00S00C0.03346
T4F00S00C0.03543
T5F00S00C0.04331
T6F00S00C0.04500
T7F00S00C0.05118
T8F00S00C0.12598
T9F00S00C0.13000
%
T01
X0297Y0095
X0307
X0317
X0327
X0337
X0357
X0367
X0377
X0387
X0397
X0407
X0417
X0427
X0437Y0115
Y0125
Y0135
Y0145
Y0155
Y0165
Y0175
Y0185
Y0195
Y0205
Y0215
Y0225
X0447
Y0215
Y0205
Y0195
Y0185
Y0175
Y0165
Y0155
Y0145
Y0135
Y0125
Y0115
X0287Y0095
X0277
X0267
X0247
X0237
X0227
X0217
X0207
X0197
X0201Y0285
X0211
X0221
X0231
X0247
X0257
X0267
X0277
X0287
X0191
X0181
X0171
X0161
X0297
X0307
X0317
X0337
X0347
X0357
X0367
X0377
X0387
X0397
X0407
X0437
X0447
Y0275
X0437
Y0265
X0447
Y0255
X0437
Y0245
X0447
Y0235
X0437
T02
X0294Y006
X0313685Y0059685
X0333399Y0059399
X0353084Y0059084
X0372769Y0058769
X0448Y0048
T03
X0058Y0012
X0088
Y00515
X0058
X0488Y0036
X0518
Y0075
X0488
Y01145
X0518
Y0154
X0488
Y01935
X0518
X0088Y02095
X0058
Y017
X0088
Y01305
X0058
Y0091
X0088
Y0249
X0058
Y02885
X0088
X0488Y02725
X0518
Y0312
X0488
Y0233
X0518
T04
X0527Y0036
X0597
Y0075
Y01145
Y0154
Y01935
X0527
Y0154
Y01145
Y0075
X0327551Y0184803
X0317551
Y0194803
X0327551
Y0204803
X0317551
X0527Y0233
Y02725
Y0312
X0597
Y02725
Y0233
T05
X0243Y0025843
X0263
T06
X0507Y0018
X0517
X0527
Y0057
X0517
X0507
X05525Y0036
X05625
X05725
Y0075
X05625
X05525
Y01145
X05625
X05725
Y0154
X05625
X05525
Y01935
X05625
X05725
X0527Y01755
X0517
X0507
Y0215
X0517
X0527
Y0136
X0517
X0507
Y00965
X0517
X0527
Y02545
X0517
X0507
Y0294
X0517
X0527
X05525Y0312
X05625
X05725
Y02725
X05625
X05525
Y0233
X05625
X05725
T07
X0028Y0012157
Y0031843
Y0051657
Y0071343
X0191157Y0025843
X0210842
X0294
X0313685
X0333399
X0353084
X0372769
X0409694
X0429379
X0626Y0017157
Y0036843
Y0056157
Y0075842
Y0095657
Y0115342
Y0135158
Y0154842
Y0174657
Y0194343
Y0214158
X0028Y0209658
Y0229343
Y0189843
Y0170158
Y0150343
Y0130657
Y0110843
Y0091158
Y0249158
Y0268843
Y0288657
Y0308343
X0171158Y0312
X0190842
X0626Y0312842
Y0293158
Y0273342
Y0253658
Y0233842
T08
X0327Y0115
Y0225
X0447Y0095
X0122
X0127Y0285
X0422
T09
X011Y002
X046
X0108558Y032
X046
M30
