G04*
G04 #@! TF.GenerationSoftware,Altium Limited,Altium Designer,18.1.9 (240)*
G04*
G04 Layer_Physical_Order=2*
G04 Layer_Color=16711680*
%FSLAX25Y25*%
%MOIN*%
G70*
G01*
G75*
%ADD10C,0.01000*%
%ADD11C,0.01500*%
%ADD12C,0.03000*%
%ADD13C,0.02000*%
%ADD14R,0.07677X0.07677*%
%ADD15C,0.07677*%
%ADD16C,0.06000*%
%ADD17R,0.07677X0.07677*%
%ADD18C,0.05906*%
%ADD19C,0.06500*%
%ADD20R,0.06000X0.06000*%
%ADD21C,0.07000*%
%ADD22C,0.07284*%
%ADD23R,0.07284X0.07284*%
%ADD24C,0.05512*%
%ADD25C,0.06299*%
%ADD26C,0.05500*%
%ADD27C,0.05000*%
G36*
X656000Y330000D02*
Y10000D01*
X646000Y0D01*
X10000D01*
X0Y10000D01*
Y330000D01*
X10000Y340000D01*
X646000D01*
X656000Y330000D01*
D02*
G37*
%LPC*%
G36*
X630839Y317681D02*
X621161D01*
Y314549D01*
X600026D01*
X599819Y314819D01*
X598993Y315453D01*
X598032Y315851D01*
X597000Y315987D01*
X595968Y315851D01*
X595007Y315453D01*
X594181Y314819D01*
X593974Y314549D01*
X575901D01*
X575531Y315031D01*
X574643Y315712D01*
X573609Y316141D01*
X572500Y316287D01*
X571390Y316141D01*
X570357Y315712D01*
X569469Y315031D01*
X568788Y314143D01*
X568359Y313109D01*
X568213Y312000D01*
X568359Y310891D01*
X568788Y309857D01*
X569469Y308969D01*
X570357Y308288D01*
X571390Y307859D01*
X572500Y307713D01*
X573609Y307859D01*
X574643Y308288D01*
X575531Y308969D01*
X575901Y309451D01*
X593974D01*
X594181Y309181D01*
X595007Y308547D01*
X595968Y308149D01*
X597000Y308013D01*
X598032Y308149D01*
X598993Y308547D01*
X599819Y309181D01*
X600026Y309451D01*
X621161D01*
Y308004D01*
X630839D01*
Y317681D01*
D02*
G37*
G36*
X177496Y318339D02*
X171907D01*
Y312750D01*
X177496D01*
Y318339D01*
D02*
G37*
G36*
X170407D02*
X164819D01*
Y312750D01*
X170407D01*
Y318339D01*
D02*
G37*
G36*
X517250Y317202D02*
X516628Y317121D01*
X515349Y316591D01*
X514252Y315749D01*
X513409Y314651D01*
X512879Y313372D01*
X512797Y312750D01*
X517250D01*
Y317202D01*
D02*
G37*
G36*
X28750Y314638D02*
Y309093D01*
X34295D01*
X34247Y309585D01*
X33885Y310780D01*
X33296Y311881D01*
X32504Y312846D01*
X31539Y313638D01*
X30437Y314227D01*
X29243Y314589D01*
X28750Y314638D01*
D02*
G37*
G36*
X27250Y314638D02*
X26757Y314589D01*
X25563Y314227D01*
X24462Y313638D01*
X23496Y312846D01*
X22704Y311881D01*
X22116Y310780D01*
X21753Y309585D01*
X21705Y309093D01*
X27250D01*
Y314638D01*
D02*
G37*
G36*
X552500Y316287D02*
X551391Y316141D01*
X550357Y315712D01*
X549469Y315031D01*
X548788Y314143D01*
X548359Y313109D01*
X548213Y312000D01*
X548359Y310891D01*
X548788Y309857D01*
X549469Y308969D01*
X550357Y308288D01*
X551391Y307859D01*
X552500Y307713D01*
X553610Y307859D01*
X554643Y308288D01*
X555531Y308969D01*
X556212Y309857D01*
X556641Y310891D01*
X556787Y312000D01*
X556641Y313109D01*
X556212Y314143D01*
X555531Y315031D01*
X554643Y315712D01*
X553610Y316141D01*
X552500Y316287D01*
D02*
G37*
G36*
X517250Y311250D02*
X512797D01*
X512879Y310628D01*
X513409Y309349D01*
X514252Y308252D01*
X515349Y307409D01*
X516628Y306879D01*
X517250Y306798D01*
Y311250D01*
D02*
G37*
G36*
X177496Y311250D02*
X171907D01*
Y305661D01*
X177496D01*
Y311250D01*
D02*
G37*
G36*
X170407D02*
X164819D01*
Y305661D01*
X170407D01*
Y311250D01*
D02*
G37*
G36*
X460000Y334988D02*
X457655Y334804D01*
X455368Y334255D01*
X453195Y333354D01*
X451190Y332126D01*
X449402Y330598D01*
X447874Y328810D01*
X446645Y326804D01*
X445746Y324632D01*
X445196Y322345D01*
X445012Y320000D01*
X445196Y317655D01*
X445746Y315368D01*
X446645Y313195D01*
X447874Y311190D01*
X449402Y309402D01*
X451190Y307874D01*
X453195Y306645D01*
X455368Y305746D01*
X457655Y305196D01*
X460000Y305012D01*
X462345Y305196D01*
X464632Y305746D01*
X466805Y306645D01*
X468810Y307874D01*
X470598Y309402D01*
X472126Y311190D01*
X473354Y313195D01*
X474255Y315368D01*
X474804Y317655D01*
X474988Y320000D01*
X474804Y322345D01*
X474255Y324632D01*
X473354Y326804D01*
X472126Y328810D01*
X470598Y330598D01*
X468810Y332126D01*
X466805Y333354D01*
X464632Y334255D01*
X462345Y334804D01*
X460000Y334988D01*
D02*
G37*
G36*
X108558D02*
X106213Y334804D01*
X103927Y334255D01*
X101754Y333354D01*
X99748Y332126D01*
X97960Y330598D01*
X96432Y328810D01*
X95204Y326804D01*
X94304Y324632D01*
X93755Y322345D01*
X93570Y320000D01*
X93755Y317655D01*
X94304Y315368D01*
X95204Y313195D01*
X96432Y311190D01*
X97960Y309402D01*
X99748Y307874D01*
X101754Y306645D01*
X103927Y305746D01*
X106213Y305196D01*
X108558Y305012D01*
X110903Y305196D01*
X113190Y305746D01*
X115363Y306645D01*
X117368Y307874D01*
X119156Y309402D01*
X120684Y311190D01*
X121913Y313195D01*
X122813Y315368D01*
X123362Y317655D01*
X123546Y320000D01*
X123362Y322345D01*
X122813Y324632D01*
X121913Y326804D01*
X120684Y328810D01*
X119156Y330598D01*
X117368Y332126D01*
X115363Y333354D01*
X113190Y334255D01*
X110903Y334804D01*
X108558Y334988D01*
D02*
G37*
G36*
X34295Y307593D02*
X28750D01*
Y302047D01*
X29243Y302096D01*
X30437Y302458D01*
X31539Y303047D01*
X32504Y303839D01*
X33296Y304804D01*
X33885Y305905D01*
X34247Y307100D01*
X34295Y307593D01*
D02*
G37*
G36*
X27250D02*
X21705D01*
X21753Y307100D01*
X22116Y305905D01*
X22704Y304804D01*
X23496Y303839D01*
X24462Y303047D01*
X25563Y302458D01*
X26757Y302096D01*
X27250Y302047D01*
Y307593D01*
D02*
G37*
G36*
X518750Y317202D02*
Y312000D01*
Y306798D01*
X519372Y306879D01*
X520651Y307409D01*
X521748Y308252D01*
X522591Y309349D01*
X522935Y310179D01*
X523476D01*
X523547Y310007D01*
X524181Y309181D01*
X525007Y308547D01*
X525968Y308149D01*
X527000Y308013D01*
X528032Y308149D01*
X528993Y308547D01*
X529819Y309181D01*
X530026Y309451D01*
X535944D01*
X543198Y302198D01*
X544025Y301645D01*
X545000Y301451D01*
X557000D01*
X557975Y301645D01*
X558802Y302198D01*
X564302Y307698D01*
X564753Y308372D01*
X565531Y308969D01*
X566212Y309857D01*
X566641Y310891D01*
X566787Y312000D01*
X566641Y313109D01*
X566212Y314143D01*
X565531Y315031D01*
X564643Y315712D01*
X563610Y316141D01*
X562500Y316287D01*
X561390Y316141D01*
X560357Y315712D01*
X559469Y315031D01*
X558788Y314143D01*
X558359Y313109D01*
X558213Y312000D01*
X558359Y310891D01*
X558788Y309857D01*
X558989Y309594D01*
X555944Y306549D01*
X546056D01*
X538802Y313802D01*
X537976Y314355D01*
X537000Y314549D01*
X530026D01*
X529819Y314819D01*
X528993Y315453D01*
X528032Y315851D01*
X527000Y315987D01*
X525968Y315851D01*
X525007Y315453D01*
X524181Y314819D01*
X523547Y313993D01*
X523476Y313821D01*
X522935D01*
X522591Y314651D01*
X521748Y315749D01*
X520651Y316591D01*
X519372Y317121D01*
X518750Y317202D01*
D02*
G37*
G36*
X526250Y299701D02*
X525499Y299602D01*
X524100Y299023D01*
X522899Y298101D01*
X521977Y296900D01*
X521459Y295648D01*
X520970Y295606D01*
X520931Y295616D01*
X520712Y296143D01*
X520031Y297031D01*
X519143Y297712D01*
X518110Y298141D01*
X517000Y298287D01*
X515891Y298141D01*
X514857Y297712D01*
X513969Y297031D01*
X513288Y296143D01*
X512859Y295110D01*
X512713Y294000D01*
X512859Y292891D01*
X513288Y291857D01*
X513969Y290969D01*
X514857Y290288D01*
X515891Y289859D01*
X517000Y289713D01*
X517602Y289793D01*
X521198Y286198D01*
X522024Y285645D01*
X523000Y285451D01*
X620843D01*
X621818Y285645D01*
X622645Y286198D01*
X624873Y288425D01*
X626000Y288277D01*
X627263Y288443D01*
X628440Y288931D01*
X629451Y289707D01*
X630227Y290717D01*
X630714Y291894D01*
X630880Y293158D01*
X630714Y294421D01*
X630227Y295598D01*
X629451Y296608D01*
X628440Y297384D01*
X627263Y297871D01*
X626000Y298038D01*
X624737Y297871D01*
X623560Y297384D01*
X622549Y296608D01*
X621773Y295598D01*
X621286Y294421D01*
X621120Y293158D01*
X621268Y292030D01*
X619787Y290549D01*
X532165D01*
X531944Y290997D01*
X532023Y291100D01*
X532602Y292499D01*
X532701Y293250D01*
X527000D01*
Y294000D01*
X526250D01*
Y299701D01*
D02*
G37*
G36*
X527750D02*
Y294750D01*
X532701D01*
X532602Y295501D01*
X532023Y296900D01*
X531101Y298101D01*
X529900Y299023D01*
X528501Y299602D01*
X527750Y299701D01*
D02*
G37*
G36*
X488000Y315788D02*
X487019Y315659D01*
X486106Y315281D01*
X485321Y314679D01*
X484719Y313894D01*
X484341Y312981D01*
X484212Y312000D01*
X484341Y311019D01*
X484719Y310106D01*
X485321Y309321D01*
X486106Y308719D01*
X487019Y308341D01*
X488000Y308212D01*
X488980Y308341D01*
X489543Y308574D01*
X502903Y295214D01*
X502859Y295110D01*
X502713Y294000D01*
X502859Y292891D01*
X503288Y291857D01*
X503969Y290969D01*
X504857Y290288D01*
X505891Y289859D01*
X507000Y289713D01*
X508110Y289859D01*
X509143Y290288D01*
X510031Y290969D01*
X510712Y291857D01*
X511141Y292891D01*
X511287Y294000D01*
X511141Y295110D01*
X510712Y296143D01*
X510031Y297031D01*
X509143Y297712D01*
X508110Y298141D01*
X507000Y298287D01*
X505891Y298141D01*
X505786Y298097D01*
X491774Y312110D01*
X491659Y312981D01*
X491281Y313894D01*
X490679Y314679D01*
X489894Y315281D01*
X488980Y315659D01*
X488000Y315788D01*
D02*
G37*
G36*
X170250Y290449D02*
X169564Y290358D01*
X168226Y289804D01*
X167077Y288923D01*
X166196Y287774D01*
X165642Y286436D01*
X165496Y285328D01*
X164991D01*
X164897Y286044D01*
X164494Y287017D01*
X163853Y287853D01*
X163017Y288494D01*
X162044Y288897D01*
X161000Y289035D01*
X159956Y288897D01*
X158983Y288494D01*
X158147Y287853D01*
X157506Y287017D01*
X157103Y286044D01*
X156965Y285000D01*
X157103Y283956D01*
X157506Y282983D01*
X158147Y282147D01*
X158983Y281506D01*
X159956Y281103D01*
X161000Y280965D01*
X162044Y281103D01*
X163017Y281506D01*
X163853Y282147D01*
X164494Y282983D01*
X164897Y283956D01*
X164991Y284672D01*
X165496D01*
X165642Y283564D01*
X166196Y282226D01*
X167077Y281077D01*
X168226Y280196D01*
X169564Y279642D01*
X170250Y279551D01*
Y285000D01*
Y290449D01*
D02*
G37*
G36*
X88000Y292288D02*
X87019Y292159D01*
X86106Y291781D01*
X85321Y291179D01*
X84719Y290394D01*
X84341Y289480D01*
X84212Y288500D01*
X84341Y287520D01*
X84719Y286606D01*
X85321Y285821D01*
X86106Y285219D01*
X87019Y284841D01*
X88000Y284712D01*
X88981Y284841D01*
X89894Y285219D01*
X90679Y285821D01*
X91281Y286606D01*
X91659Y287520D01*
X91788Y288500D01*
X91659Y289480D01*
X91281Y290394D01*
X90679Y291179D01*
X89894Y291781D01*
X88981Y292159D01*
X88000Y292288D01*
D02*
G37*
G36*
X32839Y293496D02*
X23162D01*
Y283819D01*
X32839D01*
Y286461D01*
X54830D01*
X55321Y285821D01*
X56106Y285219D01*
X57020Y284841D01*
X58000Y284712D01*
X58981Y284841D01*
X59894Y285219D01*
X60679Y285821D01*
X61281Y286606D01*
X61659Y287520D01*
X61788Y288500D01*
X61659Y289480D01*
X61281Y290394D01*
X60679Y291179D01*
X59894Y291781D01*
X58981Y292159D01*
X58000Y292288D01*
X57020Y292159D01*
X56106Y291781D01*
X55321Y291179D01*
X54830Y290539D01*
X32839D01*
Y293496D01*
D02*
G37*
G36*
X411000Y289000D02*
X403000D01*
Y281000D01*
X411000D01*
Y289000D01*
D02*
G37*
G36*
X321000D02*
X313000D01*
Y281000D01*
X321000D01*
Y289000D01*
D02*
G37*
G36*
X235000D02*
X227000D01*
Y281000D01*
X235000D01*
Y289000D01*
D02*
G37*
G36*
X447000Y289035D02*
X445956Y288897D01*
X444983Y288494D01*
X444147Y287853D01*
X443506Y287017D01*
X443103Y286044D01*
X442966Y285000D01*
X443103Y283956D01*
X443506Y282983D01*
X444147Y282147D01*
X444983Y281506D01*
X445956Y281103D01*
X447000Y280965D01*
X448044Y281103D01*
X449017Y281506D01*
X449853Y282147D01*
X450494Y282983D01*
X450897Y283956D01*
X451034Y285000D01*
X450897Y286044D01*
X450494Y287017D01*
X449853Y287853D01*
X449017Y288494D01*
X448044Y288897D01*
X447000Y289035D01*
D02*
G37*
G36*
X437000D02*
X435956Y288897D01*
X434983Y288494D01*
X434147Y287853D01*
X433506Y287017D01*
X433103Y286044D01*
X432966Y285000D01*
X433103Y283956D01*
X433506Y282983D01*
X434147Y282147D01*
X434983Y281506D01*
X435956Y281103D01*
X437000Y280965D01*
X438044Y281103D01*
X439017Y281506D01*
X439853Y282147D01*
X440494Y282983D01*
X440897Y283956D01*
X441035Y285000D01*
X440897Y286044D01*
X440494Y287017D01*
X439853Y287853D01*
X439017Y288494D01*
X438044Y288897D01*
X437000Y289035D01*
D02*
G37*
G36*
X397000D02*
X395956Y288897D01*
X394983Y288494D01*
X394147Y287853D01*
X393506Y287017D01*
X393103Y286044D01*
X392966Y285000D01*
X393103Y283956D01*
X393506Y282983D01*
X394147Y282147D01*
X394983Y281506D01*
X395956Y281103D01*
X397000Y280965D01*
X398044Y281103D01*
X399017Y281506D01*
X399853Y282147D01*
X400494Y282983D01*
X400897Y283956D01*
X401034Y285000D01*
X400897Y286044D01*
X400494Y287017D01*
X399853Y287853D01*
X399017Y288494D01*
X398044Y288897D01*
X397000Y289035D01*
D02*
G37*
G36*
X387000D02*
X385956Y288897D01*
X384983Y288494D01*
X384147Y287853D01*
X383506Y287017D01*
X383103Y286044D01*
X382965Y285000D01*
X383103Y283956D01*
X383506Y282983D01*
X384147Y282147D01*
X384983Y281506D01*
X385956Y281103D01*
X387000Y280965D01*
X388044Y281103D01*
X389017Y281506D01*
X389853Y282147D01*
X390494Y282983D01*
X390897Y283956D01*
X391035Y285000D01*
X390897Y286044D01*
X390494Y287017D01*
X389853Y287853D01*
X389017Y288494D01*
X388044Y288897D01*
X387000Y289035D01*
D02*
G37*
G36*
X377000D02*
X375956Y288897D01*
X374983Y288494D01*
X374147Y287853D01*
X373506Y287017D01*
X373103Y286044D01*
X372966Y285000D01*
X373103Y283956D01*
X373506Y282983D01*
X374147Y282147D01*
X374983Y281506D01*
X375956Y281103D01*
X377000Y280965D01*
X378044Y281103D01*
X379017Y281506D01*
X379853Y282147D01*
X380494Y282983D01*
X380897Y283956D01*
X381034Y285000D01*
X380897Y286044D01*
X380494Y287017D01*
X379853Y287853D01*
X379017Y288494D01*
X378044Y288897D01*
X377000Y289035D01*
D02*
G37*
G36*
X367000D02*
X365956Y288897D01*
X364983Y288494D01*
X364147Y287853D01*
X363506Y287017D01*
X363103Y286044D01*
X362965Y285000D01*
X363103Y283956D01*
X363506Y282983D01*
X364147Y282147D01*
X364983Y281506D01*
X365956Y281103D01*
X367000Y280965D01*
X368044Y281103D01*
X369017Y281506D01*
X369853Y282147D01*
X370494Y282983D01*
X370897Y283956D01*
X371035Y285000D01*
X370897Y286044D01*
X370494Y287017D01*
X369853Y287853D01*
X369017Y288494D01*
X368044Y288897D01*
X367000Y289035D01*
D02*
G37*
G36*
X357000D02*
X355956Y288897D01*
X354983Y288494D01*
X354147Y287853D01*
X353506Y287017D01*
X353103Y286044D01*
X352965Y285000D01*
X353103Y283956D01*
X353506Y282983D01*
X354147Y282147D01*
X354983Y281506D01*
X355956Y281103D01*
X357000Y280965D01*
X358044Y281103D01*
X359017Y281506D01*
X359853Y282147D01*
X360494Y282983D01*
X360897Y283956D01*
X361034Y285000D01*
X360897Y286044D01*
X360494Y287017D01*
X359853Y287853D01*
X359017Y288494D01*
X358044Y288897D01*
X357000Y289035D01*
D02*
G37*
G36*
X347000D02*
X345956Y288897D01*
X344983Y288494D01*
X344147Y287853D01*
X343506Y287017D01*
X343103Y286044D01*
X342966Y285000D01*
X343103Y283956D01*
X343506Y282983D01*
X344147Y282147D01*
X344983Y281506D01*
X345956Y281103D01*
X347000Y280965D01*
X348044Y281103D01*
X349017Y281506D01*
X349853Y282147D01*
X350494Y282983D01*
X350897Y283956D01*
X351034Y285000D01*
X350897Y286044D01*
X350494Y287017D01*
X349853Y287853D01*
X349017Y288494D01*
X348044Y288897D01*
X347000Y289035D01*
D02*
G37*
G36*
X337000D02*
X335956Y288897D01*
X334983Y288494D01*
X334147Y287853D01*
X333506Y287017D01*
X333103Y286044D01*
X332965Y285000D01*
X333103Y283956D01*
X333506Y282983D01*
X334147Y282147D01*
X334983Y281506D01*
X335956Y281103D01*
X337000Y280965D01*
X338044Y281103D01*
X339017Y281506D01*
X339853Y282147D01*
X340494Y282983D01*
X340897Y283956D01*
X341035Y285000D01*
X340897Y286044D01*
X340494Y287017D01*
X339853Y287853D01*
X339017Y288494D01*
X338044Y288897D01*
X337000Y289035D01*
D02*
G37*
G36*
X307000D02*
X305956Y288897D01*
X304983Y288494D01*
X304147Y287853D01*
X303506Y287017D01*
X303103Y286044D01*
X302965Y285000D01*
X303103Y283956D01*
X303506Y282983D01*
X304147Y282147D01*
X304983Y281506D01*
X305956Y281103D01*
X307000Y280965D01*
X308044Y281103D01*
X309017Y281506D01*
X309853Y282147D01*
X310494Y282983D01*
X310897Y283956D01*
X311034Y285000D01*
X310897Y286044D01*
X310494Y287017D01*
X309853Y287853D01*
X309017Y288494D01*
X308044Y288897D01*
X307000Y289035D01*
D02*
G37*
G36*
X297000D02*
X295956Y288897D01*
X294983Y288494D01*
X294147Y287853D01*
X293506Y287017D01*
X293103Y286044D01*
X292966Y285000D01*
X293103Y283956D01*
X293506Y282983D01*
X294147Y282147D01*
X294983Y281506D01*
X295956Y281103D01*
X297000Y280965D01*
X298044Y281103D01*
X299017Y281506D01*
X299853Y282147D01*
X300494Y282983D01*
X300897Y283956D01*
X301034Y285000D01*
X300897Y286044D01*
X300494Y287017D01*
X299853Y287853D01*
X299017Y288494D01*
X298044Y288897D01*
X297000Y289035D01*
D02*
G37*
G36*
X287000D02*
X285956Y288897D01*
X284983Y288494D01*
X284147Y287853D01*
X283506Y287017D01*
X283103Y286044D01*
X282965Y285000D01*
X283103Y283956D01*
X283506Y282983D01*
X284147Y282147D01*
X284983Y281506D01*
X285956Y281103D01*
X287000Y280965D01*
X288044Y281103D01*
X289017Y281506D01*
X289853Y282147D01*
X290494Y282983D01*
X290897Y283956D01*
X291035Y285000D01*
X290897Y286044D01*
X290494Y287017D01*
X289853Y287853D01*
X289017Y288494D01*
X288044Y288897D01*
X287000Y289035D01*
D02*
G37*
G36*
X277000D02*
X275956Y288897D01*
X274983Y288494D01*
X274147Y287853D01*
X273506Y287017D01*
X273103Y286044D01*
X272966Y285000D01*
X273103Y283956D01*
X273506Y282983D01*
X274147Y282147D01*
X274983Y281506D01*
X275956Y281103D01*
X277000Y280965D01*
X278044Y281103D01*
X279017Y281506D01*
X279853Y282147D01*
X280494Y282983D01*
X280897Y283956D01*
X281034Y285000D01*
X280897Y286044D01*
X280494Y287017D01*
X279853Y287853D01*
X279017Y288494D01*
X278044Y288897D01*
X277000Y289035D01*
D02*
G37*
G36*
X267000D02*
X265956Y288897D01*
X264983Y288494D01*
X264147Y287853D01*
X263506Y287017D01*
X263103Y286044D01*
X262965Y285000D01*
X263103Y283956D01*
X263506Y282983D01*
X264147Y282147D01*
X264983Y281506D01*
X265956Y281103D01*
X267000Y280965D01*
X268044Y281103D01*
X269017Y281506D01*
X269853Y282147D01*
X270494Y282983D01*
X270897Y283956D01*
X271035Y285000D01*
X270897Y286044D01*
X270494Y287017D01*
X269853Y287853D01*
X269017Y288494D01*
X268044Y288897D01*
X267000Y289035D01*
D02*
G37*
G36*
X257000D02*
X255956Y288897D01*
X254983Y288494D01*
X254147Y287853D01*
X253506Y287017D01*
X253103Y286044D01*
X252965Y285000D01*
X253103Y283956D01*
X253506Y282983D01*
X254147Y282147D01*
X254983Y281506D01*
X255956Y281103D01*
X257000Y280965D01*
X258044Y281103D01*
X259017Y281506D01*
X259853Y282147D01*
X260494Y282983D01*
X260897Y283956D01*
X261034Y285000D01*
X260897Y286044D01*
X260494Y287017D01*
X259853Y287853D01*
X259017Y288494D01*
X258044Y288897D01*
X257000Y289035D01*
D02*
G37*
G36*
X247000D02*
X245956Y288897D01*
X244983Y288494D01*
X244147Y287853D01*
X243506Y287017D01*
X243103Y286044D01*
X242966Y285000D01*
X243103Y283956D01*
X243506Y282983D01*
X244147Y282147D01*
X244983Y281506D01*
X245956Y281103D01*
X247000Y280965D01*
X248044Y281103D01*
X249017Y281506D01*
X249853Y282147D01*
X250494Y282983D01*
X250897Y283956D01*
X251034Y285000D01*
X250897Y286044D01*
X250494Y287017D01*
X249853Y287853D01*
X249017Y288494D01*
X248044Y288897D01*
X247000Y289035D01*
D02*
G37*
G36*
X221000D02*
X219956Y288897D01*
X218983Y288494D01*
X218147Y287853D01*
X217506Y287017D01*
X217103Y286044D01*
X216966Y285000D01*
X217103Y283956D01*
X217506Y282983D01*
X218147Y282147D01*
X218983Y281506D01*
X219956Y281103D01*
X221000Y280965D01*
X222044Y281103D01*
X223017Y281506D01*
X223853Y282147D01*
X224494Y282983D01*
X224897Y283956D01*
X225034Y285000D01*
X224897Y286044D01*
X224494Y287017D01*
X223853Y287853D01*
X223017Y288494D01*
X222044Y288897D01*
X221000Y289035D01*
D02*
G37*
G36*
X211000D02*
X209956Y288897D01*
X208983Y288494D01*
X208147Y287853D01*
X207506Y287017D01*
X207103Y286044D01*
X206965Y285000D01*
X207103Y283956D01*
X207506Y282983D01*
X208147Y282147D01*
X208983Y281506D01*
X209956Y281103D01*
X211000Y280965D01*
X212044Y281103D01*
X213017Y281506D01*
X213853Y282147D01*
X214494Y282983D01*
X214897Y283956D01*
X215035Y285000D01*
X214897Y286044D01*
X214494Y287017D01*
X213853Y287853D01*
X213017Y288494D01*
X212044Y288897D01*
X211000Y289035D01*
D02*
G37*
G36*
X201000D02*
X199956Y288897D01*
X198983Y288494D01*
X198147Y287853D01*
X197506Y287017D01*
X197103Y286044D01*
X196966Y285000D01*
X197103Y283956D01*
X197506Y282983D01*
X198147Y282147D01*
X198983Y281506D01*
X199956Y281103D01*
X201000Y280965D01*
X202044Y281103D01*
X203017Y281506D01*
X203853Y282147D01*
X204494Y282983D01*
X204897Y283956D01*
X205034Y285000D01*
X204897Y286044D01*
X204494Y287017D01*
X203853Y287853D01*
X203017Y288494D01*
X202044Y288897D01*
X201000Y289035D01*
D02*
G37*
G36*
X190842Y316880D02*
X189579Y316714D01*
X188402Y316227D01*
X187392Y315451D01*
X186616Y314440D01*
X186128Y313263D01*
X185962Y312000D01*
X186128Y310737D01*
X186616Y309560D01*
X187392Y308549D01*
X188294Y307857D01*
Y287965D01*
X188147Y287853D01*
X187506Y287017D01*
X187103Y286044D01*
X186966Y285000D01*
X187103Y283956D01*
X187506Y282983D01*
X188147Y282147D01*
X188983Y281506D01*
X189956Y281103D01*
X191000Y280965D01*
X192044Y281103D01*
X193017Y281506D01*
X193853Y282147D01*
X194494Y282983D01*
X194897Y283956D01*
X195035Y285000D01*
X194897Y286044D01*
X194494Y287017D01*
X193853Y287853D01*
X193392Y288207D01*
Y307857D01*
X194293Y308549D01*
X195069Y309560D01*
X195557Y310737D01*
X195723Y312000D01*
X195557Y313263D01*
X195069Y314440D01*
X194293Y315451D01*
X193283Y316227D01*
X192106Y316714D01*
X190842Y316880D01*
D02*
G37*
G36*
X171750Y290449D02*
Y285000D01*
Y279551D01*
X172436Y279642D01*
X173774Y280196D01*
X174923Y281077D01*
X175804Y282226D01*
X176358Y283564D01*
X176504Y284672D01*
X177009D01*
X177103Y283956D01*
X177506Y282983D01*
X178147Y282147D01*
X178983Y281506D01*
X179956Y281103D01*
X181000Y280965D01*
X182044Y281103D01*
X183017Y281506D01*
X183853Y282147D01*
X184494Y282983D01*
X184897Y283956D01*
X185035Y285000D01*
X184897Y286044D01*
X184494Y287017D01*
X183853Y287853D01*
X183017Y288494D01*
X182044Y288897D01*
X181000Y289035D01*
X179956Y288897D01*
X178983Y288494D01*
X178147Y287853D01*
X177506Y287017D01*
X177103Y286044D01*
X177009Y285328D01*
X176504D01*
X176358Y286436D01*
X175804Y287774D01*
X174923Y288923D01*
X173774Y289804D01*
X172436Y290358D01*
X171750Y290449D01*
D02*
G37*
G36*
X422000Y292335D02*
X420569Y292194D01*
X419193Y291776D01*
X417925Y291098D01*
X416814Y290186D01*
X415902Y289075D01*
X415224Y287807D01*
X414806Y286431D01*
X414666Y285000D01*
X414806Y283569D01*
X415224Y282193D01*
X415902Y280925D01*
X416814Y279814D01*
X417925Y278902D01*
X419193Y278224D01*
X420569Y277806D01*
X422000Y277665D01*
X423431Y277806D01*
X424807Y278224D01*
X426075Y278902D01*
X427186Y279814D01*
X428098Y280925D01*
X428776Y282193D01*
X429194Y283569D01*
X429334Y285000D01*
X429194Y286431D01*
X428776Y287807D01*
X428098Y289075D01*
X427186Y290186D01*
X426075Y291098D01*
X424807Y291776D01*
X423431Y292194D01*
X422000Y292335D01*
D02*
G37*
G36*
X127000D02*
X125569Y292194D01*
X124193Y291776D01*
X122925Y291098D01*
X121814Y290186D01*
X120902Y289075D01*
X120224Y287807D01*
X119806Y286431D01*
X119666Y285000D01*
X119806Y283569D01*
X120224Y282193D01*
X120902Y280925D01*
X121814Y279814D01*
X122925Y278902D01*
X124193Y278224D01*
X125569Y277806D01*
X127000Y277665D01*
X128431Y277806D01*
X129807Y278224D01*
X131075Y278902D01*
X132186Y279814D01*
X133098Y280925D01*
X133776Y282193D01*
X134194Y283569D01*
X134335Y285000D01*
X134194Y286431D01*
X133776Y287807D01*
X133098Y289075D01*
X132186Y290186D01*
X131075Y291098D01*
X129807Y291776D01*
X128431Y292194D01*
X127000Y292335D01*
D02*
G37*
G36*
X630839Y278181D02*
X621161D01*
Y275049D01*
X600026D01*
X599819Y275319D01*
X598993Y275953D01*
X598032Y276351D01*
X597000Y276487D01*
X595968Y276351D01*
X595007Y275953D01*
X594181Y275319D01*
X593974Y275049D01*
X575901D01*
X575531Y275531D01*
X574643Y276212D01*
X573609Y276641D01*
X572500Y276787D01*
X571390Y276641D01*
X570357Y276212D01*
X569469Y275531D01*
X568788Y274643D01*
X568359Y273609D01*
X568213Y272500D01*
X568359Y271391D01*
X568788Y270357D01*
X569469Y269469D01*
X570357Y268788D01*
X571390Y268359D01*
X572500Y268213D01*
X573609Y268359D01*
X574643Y268788D01*
X575531Y269469D01*
X575901Y269951D01*
X593974D01*
X594181Y269681D01*
X595007Y269047D01*
X595968Y268649D01*
X597000Y268513D01*
X598032Y268649D01*
X598993Y269047D01*
X599819Y269681D01*
X600026Y269951D01*
X621161D01*
Y268504D01*
X630839D01*
Y278181D01*
D02*
G37*
G36*
X517250Y277702D02*
X516628Y277621D01*
X515349Y277091D01*
X514252Y276249D01*
X513409Y275151D01*
X512879Y273872D01*
X512797Y273250D01*
X517250D01*
Y277702D01*
D02*
G37*
G36*
X447000Y279034D02*
X445956Y278897D01*
X444983Y278494D01*
X444147Y277853D01*
X443506Y277017D01*
X443103Y276044D01*
X442966Y275000D01*
X443103Y273956D01*
X443506Y272983D01*
X444147Y272147D01*
X444983Y271506D01*
X445956Y271103D01*
X447000Y270966D01*
X448044Y271103D01*
X449017Y271506D01*
X449853Y272147D01*
X450494Y272983D01*
X450897Y273956D01*
X451034Y275000D01*
X450897Y276044D01*
X450494Y277017D01*
X449853Y277853D01*
X449017Y278494D01*
X448044Y278897D01*
X447000Y279034D01*
D02*
G37*
G36*
X437000D02*
X435956Y278897D01*
X434983Y278494D01*
X434147Y277853D01*
X433506Y277017D01*
X433103Y276044D01*
X432966Y275000D01*
X433103Y273956D01*
X433506Y272983D01*
X434147Y272147D01*
X434983Y271506D01*
X435956Y271103D01*
X437000Y270966D01*
X438044Y271103D01*
X439017Y271506D01*
X439853Y272147D01*
X440494Y272983D01*
X440897Y273956D01*
X441035Y275000D01*
X440897Y276044D01*
X440494Y277017D01*
X439853Y277853D01*
X439017Y278494D01*
X438044Y278897D01*
X437000Y279034D01*
D02*
G37*
G36*
X28750Y275138D02*
Y269593D01*
X34295D01*
X34247Y270085D01*
X33885Y271280D01*
X33296Y272381D01*
X32504Y273346D01*
X31539Y274138D01*
X30437Y274727D01*
X29243Y275089D01*
X28750Y275138D01*
D02*
G37*
G36*
X27250D02*
X26757Y275089D01*
X25563Y274727D01*
X24462Y274138D01*
X23496Y273346D01*
X22704Y272381D01*
X22116Y271280D01*
X21753Y270085D01*
X21705Y269593D01*
X27250D01*
Y275138D01*
D02*
G37*
G36*
X552500Y276787D02*
X551391Y276641D01*
X550357Y276212D01*
X549469Y275531D01*
X548788Y274643D01*
X548359Y273609D01*
X548213Y272500D01*
X548359Y271391D01*
X548788Y270357D01*
X549469Y269469D01*
X550357Y268788D01*
X551391Y268359D01*
X552500Y268213D01*
X553610Y268359D01*
X554643Y268788D01*
X555531Y269469D01*
X556212Y270357D01*
X556641Y271391D01*
X556787Y272500D01*
X556641Y273609D01*
X556212Y274643D01*
X555531Y275531D01*
X554643Y276212D01*
X553610Y276641D01*
X552500Y276787D01*
D02*
G37*
G36*
X517250Y271750D02*
X512797D01*
X512879Y271128D01*
X513409Y269849D01*
X514252Y268752D01*
X515349Y267909D01*
X516628Y267379D01*
X517250Y267298D01*
Y271750D01*
D02*
G37*
G36*
X34295Y268093D02*
X28750D01*
Y262547D01*
X29243Y262596D01*
X30437Y262958D01*
X31539Y263547D01*
X32504Y264339D01*
X33296Y265304D01*
X33885Y266405D01*
X34247Y267600D01*
X34295Y268093D01*
D02*
G37*
G36*
X27250D02*
X21705D01*
X21753Y267600D01*
X22116Y266405D01*
X22704Y265304D01*
X23496Y264339D01*
X24462Y263547D01*
X25563Y262958D01*
X26757Y262596D01*
X27250Y262547D01*
Y268093D01*
D02*
G37*
G36*
X518750Y277702D02*
Y272500D01*
X518000D01*
D01*
X518750D01*
Y267298D01*
X519372Y267379D01*
X520651Y267909D01*
X521748Y268752D01*
X522591Y269849D01*
X522935Y270679D01*
X523476D01*
X523547Y270507D01*
X524181Y269681D01*
X525007Y269047D01*
X525968Y268649D01*
X527000Y268513D01*
X528032Y268649D01*
X528993Y269047D01*
X529819Y269681D01*
X530026Y269951D01*
X535944D01*
X543198Y262698D01*
X544025Y262145D01*
X545000Y261951D01*
X557000D01*
X557975Y262145D01*
X558802Y262698D01*
X564302Y268198D01*
X564753Y268872D01*
X565531Y269469D01*
X566212Y270357D01*
X566641Y271391D01*
X566787Y272500D01*
X566641Y273609D01*
X566212Y274643D01*
X565531Y275531D01*
X564643Y276212D01*
X563610Y276641D01*
X562500Y276787D01*
X561390Y276641D01*
X560357Y276212D01*
X559469Y275531D01*
X558788Y274643D01*
X558359Y273609D01*
X558213Y272500D01*
X558359Y271391D01*
X558788Y270357D01*
X558989Y270094D01*
X555944Y267049D01*
X546056D01*
X538802Y274302D01*
X537976Y274855D01*
X537000Y275049D01*
X530026D01*
X529819Y275319D01*
X528993Y275953D01*
X528032Y276351D01*
X527000Y276487D01*
X525968Y276351D01*
X525007Y275953D01*
X524181Y275319D01*
X523547Y274493D01*
X523476Y274321D01*
X522935D01*
X522591Y275151D01*
X521748Y276249D01*
X520651Y277091D01*
X519372Y277621D01*
X518750Y277702D01*
D02*
G37*
G36*
X447000Y269035D02*
X445956Y268897D01*
X444983Y268494D01*
X444147Y267853D01*
X443506Y267017D01*
X443103Y266044D01*
X442966Y265000D01*
X443103Y263956D01*
X443506Y262983D01*
X444147Y262147D01*
X444983Y261506D01*
X445956Y261103D01*
X447000Y260965D01*
X448044Y261103D01*
X449017Y261506D01*
X449853Y262147D01*
X450494Y262983D01*
X450897Y263956D01*
X451034Y265000D01*
X450897Y266044D01*
X450494Y267017D01*
X449853Y267853D01*
X449017Y268494D01*
X448044Y268897D01*
X447000Y269035D01*
D02*
G37*
G36*
X437000D02*
X435956Y268897D01*
X434983Y268494D01*
X434147Y267853D01*
X433506Y267017D01*
X433103Y266044D01*
X432966Y265000D01*
X433103Y263956D01*
X433506Y262983D01*
X434147Y262147D01*
X434983Y261506D01*
X435956Y261103D01*
X437000Y260965D01*
X438044Y261103D01*
X439017Y261506D01*
X439853Y262147D01*
X440494Y262983D01*
X440897Y263956D01*
X441035Y265000D01*
X440897Y266044D01*
X440494Y267017D01*
X439853Y267853D01*
X439017Y268494D01*
X438044Y268897D01*
X437000Y269035D01*
D02*
G37*
G36*
X526250Y260201D02*
X525499Y260102D01*
X524100Y259523D01*
X522899Y258601D01*
X521977Y257400D01*
X521459Y256148D01*
X520970Y256106D01*
X520931Y256116D01*
X520712Y256643D01*
X520031Y257531D01*
X519143Y258212D01*
X518110Y258641D01*
X517000Y258787D01*
X515891Y258641D01*
X514857Y258212D01*
X513969Y257531D01*
X513288Y256643D01*
X512859Y255609D01*
X512713Y254500D01*
X512859Y253391D01*
X513288Y252357D01*
X513969Y251469D01*
X514857Y250788D01*
X515891Y250359D01*
X517000Y250213D01*
X517602Y250293D01*
X521198Y246698D01*
X522024Y246145D01*
X523000Y245951D01*
X620843D01*
X621818Y246145D01*
X622645Y246698D01*
X624873Y248925D01*
X626000Y248777D01*
X627263Y248943D01*
X628440Y249431D01*
X629451Y250207D01*
X630227Y251217D01*
X630714Y252394D01*
X630880Y253658D01*
X630714Y254921D01*
X630227Y256098D01*
X629451Y257108D01*
X628440Y257884D01*
X627263Y258371D01*
X626000Y258538D01*
X624737Y258371D01*
X623560Y257884D01*
X622549Y257108D01*
X621773Y256098D01*
X621286Y254921D01*
X621120Y253658D01*
X621268Y252530D01*
X619787Y251049D01*
X532165D01*
X531944Y251497D01*
X532023Y251600D01*
X532602Y252999D01*
X532701Y253750D01*
X527000D01*
Y254500D01*
X526250D01*
Y260201D01*
D02*
G37*
G36*
X527750D02*
Y255250D01*
X532701D01*
X532602Y256001D01*
X532023Y257400D01*
X531101Y258601D01*
X529900Y259523D01*
X528501Y260102D01*
X527750Y260201D01*
D02*
G37*
G36*
X447000Y259034D02*
X445956Y258897D01*
X444983Y258494D01*
X444147Y257853D01*
X443506Y257017D01*
X443103Y256044D01*
X442966Y255000D01*
X443103Y253956D01*
X443506Y252983D01*
X444147Y252147D01*
X444983Y251506D01*
X445956Y251103D01*
X447000Y250965D01*
X448044Y251103D01*
X449017Y251506D01*
X449853Y252147D01*
X450494Y252983D01*
X450897Y253956D01*
X451034Y255000D01*
X450897Y256044D01*
X450494Y257017D01*
X449853Y257853D01*
X449017Y258494D01*
X448044Y258897D01*
X447000Y259034D01*
D02*
G37*
G36*
X437000D02*
X435956Y258897D01*
X434983Y258494D01*
X434147Y257853D01*
X433506Y257017D01*
X433103Y256044D01*
X432966Y255000D01*
X433103Y253956D01*
X433506Y252983D01*
X434147Y252147D01*
X434983Y251506D01*
X435956Y251103D01*
X437000Y250965D01*
X438044Y251103D01*
X439017Y251506D01*
X439853Y252147D01*
X440494Y252983D01*
X440897Y253956D01*
X441035Y255000D01*
X440897Y256044D01*
X440494Y257017D01*
X439853Y257853D01*
X439017Y258494D01*
X438044Y258897D01*
X437000Y259034D01*
D02*
G37*
G36*
X488000Y276288D02*
X487019Y276159D01*
X486106Y275781D01*
X485321Y275179D01*
X484719Y274394D01*
X484341Y273481D01*
X484212Y272500D01*
X484341Y271519D01*
X484719Y270606D01*
X485321Y269821D01*
X486106Y269219D01*
X487019Y268841D01*
X488000Y268712D01*
X488980Y268841D01*
X489543Y269074D01*
X502903Y255714D01*
X502859Y255609D01*
X502713Y254500D01*
X502859Y253391D01*
X503288Y252357D01*
X503969Y251469D01*
X504857Y250788D01*
X505891Y250359D01*
X507000Y250213D01*
X508110Y250359D01*
X509143Y250788D01*
X510031Y251469D01*
X510712Y252357D01*
X511141Y253391D01*
X511287Y254500D01*
X511141Y255609D01*
X510712Y256643D01*
X510031Y257531D01*
X509143Y258212D01*
X508110Y258641D01*
X507000Y258787D01*
X505891Y258641D01*
X505786Y258597D01*
X491774Y272610D01*
X491659Y273481D01*
X491281Y274394D01*
X490679Y275179D01*
X489894Y275781D01*
X488980Y276159D01*
X488000Y276288D01*
D02*
G37*
G36*
X88000Y252788D02*
X87019Y252659D01*
X86106Y252281D01*
X85321Y251679D01*
X84719Y250894D01*
X84341Y249980D01*
X84212Y249000D01*
X84341Y248020D01*
X84719Y247106D01*
X85321Y246321D01*
X86106Y245719D01*
X87019Y245341D01*
X88000Y245212D01*
X88981Y245341D01*
X89894Y245719D01*
X90679Y246321D01*
X91281Y247106D01*
X91659Y248020D01*
X91788Y249000D01*
X91659Y249980D01*
X91281Y250894D01*
X90679Y251679D01*
X89894Y252281D01*
X88981Y252659D01*
X88000Y252788D01*
D02*
G37*
G36*
X32839Y253996D02*
X23162D01*
Y244319D01*
X32839D01*
Y246961D01*
X54830D01*
X55321Y246321D01*
X56106Y245719D01*
X57020Y245341D01*
X58000Y245212D01*
X58981Y245341D01*
X59894Y245719D01*
X60679Y246321D01*
X61281Y247106D01*
X61659Y248020D01*
X61788Y249000D01*
X61659Y249980D01*
X61281Y250894D01*
X60679Y251679D01*
X59894Y252281D01*
X58981Y252659D01*
X58000Y252788D01*
X57020Y252659D01*
X56106Y252281D01*
X55321Y251679D01*
X54830Y251039D01*
X32839D01*
Y253996D01*
D02*
G37*
G36*
X447000Y249035D02*
X445956Y248897D01*
X444983Y248494D01*
X444147Y247853D01*
X443506Y247017D01*
X443103Y246044D01*
X442966Y245000D01*
X443103Y243956D01*
X443506Y242983D01*
X444147Y242147D01*
X444983Y241506D01*
X445956Y241103D01*
X447000Y240966D01*
X448044Y241103D01*
X449017Y241506D01*
X449853Y242147D01*
X450494Y242983D01*
X450897Y243956D01*
X451034Y245000D01*
X450897Y246044D01*
X450494Y247017D01*
X449853Y247853D01*
X449017Y248494D01*
X448044Y248897D01*
X447000Y249035D01*
D02*
G37*
G36*
X437000D02*
X435956Y248897D01*
X434983Y248494D01*
X434147Y247853D01*
X433506Y247017D01*
X433103Y246044D01*
X432966Y245000D01*
X433103Y243956D01*
X433506Y242983D01*
X434147Y242147D01*
X434983Y241506D01*
X435956Y241103D01*
X437000Y240966D01*
X438044Y241103D01*
X439017Y241506D01*
X439853Y242147D01*
X440494Y242983D01*
X440897Y243956D01*
X441035Y245000D01*
X440897Y246044D01*
X440494Y247017D01*
X439853Y247853D01*
X439017Y248494D01*
X438044Y248897D01*
X437000Y249035D01*
D02*
G37*
G36*
X630839Y238681D02*
X621161D01*
Y235549D01*
X600026D01*
X599819Y235819D01*
X598993Y236453D01*
X598032Y236851D01*
X597000Y236987D01*
X595968Y236851D01*
X595007Y236453D01*
X594181Y235819D01*
X593974Y235549D01*
X575901D01*
X575531Y236031D01*
X574643Y236712D01*
X573609Y237141D01*
X572500Y237287D01*
X571390Y237141D01*
X570357Y236712D01*
X569469Y236031D01*
X568788Y235143D01*
X568359Y234109D01*
X568213Y233000D01*
X568359Y231891D01*
X568788Y230857D01*
X569469Y229969D01*
X570357Y229288D01*
X571390Y228859D01*
X572500Y228713D01*
X573609Y228859D01*
X574643Y229288D01*
X575531Y229969D01*
X575901Y230451D01*
X593974D01*
X594181Y230181D01*
X595007Y229547D01*
X595968Y229149D01*
X597000Y229013D01*
X598032Y229149D01*
X598993Y229547D01*
X599819Y230181D01*
X600026Y230451D01*
X621161D01*
Y229004D01*
X630839D01*
Y238681D01*
D02*
G37*
G36*
X517250Y238203D02*
X516628Y238121D01*
X515349Y237591D01*
X514252Y236749D01*
X513409Y235651D01*
X512879Y234372D01*
X512797Y233750D01*
X517250D01*
Y238203D01*
D02*
G37*
G36*
X447000Y239035D02*
X445956Y238897D01*
X444983Y238494D01*
X444147Y237853D01*
X443506Y237017D01*
X443103Y236044D01*
X442966Y235000D01*
X443103Y233956D01*
X443506Y232983D01*
X444147Y232147D01*
X444983Y231506D01*
X445956Y231103D01*
X447000Y230965D01*
X448044Y231103D01*
X449017Y231506D01*
X449853Y232147D01*
X450494Y232983D01*
X450897Y233956D01*
X451034Y235000D01*
X450897Y236044D01*
X450494Y237017D01*
X449853Y237853D01*
X449017Y238494D01*
X448044Y238897D01*
X447000Y239035D01*
D02*
G37*
G36*
X437000D02*
X435956Y238897D01*
X434983Y238494D01*
X434147Y237853D01*
X433506Y237017D01*
X433103Y236044D01*
X432966Y235000D01*
X433103Y233956D01*
X433506Y232983D01*
X434147Y232147D01*
X434983Y231506D01*
X435956Y231103D01*
X437000Y230965D01*
X438044Y231103D01*
X439017Y231506D01*
X439853Y232147D01*
X440494Y232983D01*
X440897Y233956D01*
X441035Y235000D01*
X440897Y236044D01*
X440494Y237017D01*
X439853Y237853D01*
X439017Y238494D01*
X438044Y238897D01*
X437000Y239035D01*
D02*
G37*
G36*
X28750Y235638D02*
Y230093D01*
X34295D01*
X34247Y230585D01*
X33885Y231780D01*
X33296Y232881D01*
X32504Y233846D01*
X31539Y234638D01*
X30437Y235227D01*
X29243Y235589D01*
X28750Y235638D01*
D02*
G37*
G36*
X27250D02*
X26757Y235589D01*
X25563Y235227D01*
X24462Y234638D01*
X23496Y233846D01*
X22704Y232881D01*
X22116Y231780D01*
X21753Y230585D01*
X21705Y230093D01*
X27250D01*
Y235638D01*
D02*
G37*
G36*
X552500Y237287D02*
X551391Y237141D01*
X550357Y236712D01*
X549469Y236031D01*
X548788Y235143D01*
X548359Y234109D01*
X548213Y233000D01*
X548359Y231891D01*
X548788Y230857D01*
X549469Y229969D01*
X550357Y229288D01*
X551391Y228859D01*
X552500Y228713D01*
X553610Y228859D01*
X554643Y229288D01*
X555531Y229969D01*
X556212Y230857D01*
X556641Y231891D01*
X556787Y233000D01*
X556641Y234109D01*
X556212Y235143D01*
X555531Y236031D01*
X554643Y236712D01*
X553610Y237141D01*
X552500Y237287D01*
D02*
G37*
G36*
X517250Y232250D02*
X512797D01*
X512879Y231628D01*
X513409Y230349D01*
X514252Y229252D01*
X515349Y228409D01*
X516628Y227879D01*
X517250Y227798D01*
Y232250D01*
D02*
G37*
G36*
X34295Y228593D02*
X28750D01*
Y223047D01*
X29243Y223096D01*
X30437Y223458D01*
X31539Y224047D01*
X32504Y224839D01*
X33296Y225804D01*
X33885Y226905D01*
X34247Y228100D01*
X34295Y228593D01*
D02*
G37*
G36*
X27250D02*
X21705D01*
X21753Y228100D01*
X22116Y226905D01*
X22704Y225804D01*
X23496Y224839D01*
X24462Y224047D01*
X25563Y223458D01*
X26757Y223096D01*
X27250Y223047D01*
Y228593D01*
D02*
G37*
G36*
X518750Y238203D02*
Y233000D01*
Y227798D01*
X519372Y227879D01*
X520651Y228409D01*
X521748Y229252D01*
X522591Y230349D01*
X522935Y231179D01*
X523476D01*
X523547Y231007D01*
X524181Y230181D01*
X525007Y229547D01*
X525968Y229149D01*
X527000Y229013D01*
X528032Y229149D01*
X528993Y229547D01*
X529819Y230181D01*
X530026Y230451D01*
X535944D01*
X543198Y223198D01*
X544025Y222645D01*
X545000Y222451D01*
X557000D01*
X557975Y222645D01*
X558802Y223198D01*
X564302Y228698D01*
X564753Y229372D01*
X565531Y229969D01*
X566212Y230857D01*
X566641Y231891D01*
X566787Y233000D01*
X566641Y234109D01*
X566212Y235143D01*
X565531Y236031D01*
X564643Y236712D01*
X563610Y237141D01*
X562500Y237287D01*
X561390Y237141D01*
X560357Y236712D01*
X559469Y236031D01*
X558788Y235143D01*
X558359Y234109D01*
X558213Y233000D01*
X558359Y231891D01*
X558788Y230857D01*
X558989Y230594D01*
X555944Y227549D01*
X546056D01*
X538802Y234802D01*
X537976Y235355D01*
X537000Y235549D01*
X530026D01*
X529819Y235819D01*
X528993Y236453D01*
X528032Y236851D01*
X527000Y236987D01*
X525968Y236851D01*
X525007Y236453D01*
X524181Y235819D01*
X523547Y234993D01*
X523476Y234821D01*
X522935D01*
X522591Y235651D01*
X521748Y236749D01*
X520651Y237591D01*
X519372Y238121D01*
X518750Y238203D01*
D02*
G37*
G36*
X447000Y229034D02*
X445956Y228897D01*
X444983Y228494D01*
X444147Y227853D01*
X443506Y227017D01*
X443103Y226044D01*
X442966Y225000D01*
X443103Y223956D01*
X443506Y222983D01*
X444147Y222147D01*
X444983Y221506D01*
X445956Y221103D01*
X447000Y220966D01*
X448044Y221103D01*
X449017Y221506D01*
X449853Y222147D01*
X450494Y222983D01*
X450897Y223956D01*
X451034Y225000D01*
X450897Y226044D01*
X450494Y227017D01*
X449853Y227853D01*
X449017Y228494D01*
X448044Y228897D01*
X447000Y229034D01*
D02*
G37*
G36*
X437000D02*
X435956Y228897D01*
X434983Y228494D01*
X434147Y227853D01*
X433506Y227017D01*
X433103Y226044D01*
X432966Y225000D01*
X433103Y223956D01*
X433506Y222983D01*
X434147Y222147D01*
X434983Y221506D01*
X435956Y221103D01*
X437000Y220966D01*
X438044Y221103D01*
X439017Y221506D01*
X439853Y222147D01*
X440494Y222983D01*
X440897Y223956D01*
X441035Y225000D01*
X440897Y226044D01*
X440494Y227017D01*
X439853Y227853D01*
X439017Y228494D01*
X438044Y228897D01*
X437000Y229034D01*
D02*
G37*
G36*
X327000Y232334D02*
X325569Y232194D01*
X324193Y231776D01*
X322925Y231098D01*
X321814Y230186D01*
X320902Y229075D01*
X320224Y227807D01*
X319806Y226431D01*
X319666Y225000D01*
X319806Y223569D01*
X320224Y222193D01*
X320902Y220925D01*
X321814Y219814D01*
X322925Y218902D01*
X324193Y218224D01*
X325569Y217806D01*
X327000Y217666D01*
X328431Y217806D01*
X329807Y218224D01*
X331075Y218902D01*
X332186Y219814D01*
X333098Y220925D01*
X333776Y222193D01*
X334194Y223569D01*
X334334Y225000D01*
X334194Y226431D01*
X333776Y227807D01*
X333098Y229075D01*
X332186Y230186D01*
X331075Y231098D01*
X329807Y231776D01*
X328431Y232194D01*
X327000Y232334D01*
D02*
G37*
G36*
X526250Y220701D02*
X525499Y220602D01*
X524100Y220023D01*
X522899Y219101D01*
X521977Y217900D01*
X521459Y216648D01*
X520970Y216606D01*
X520931Y216616D01*
X520712Y217143D01*
X520031Y218031D01*
X519143Y218712D01*
X518110Y219141D01*
X517000Y219287D01*
X515891Y219141D01*
X514857Y218712D01*
X513969Y218031D01*
X513288Y217143D01*
X512859Y216109D01*
X512713Y215000D01*
X512859Y213891D01*
X513288Y212857D01*
X513969Y211969D01*
X514857Y211288D01*
X515891Y210859D01*
X517000Y210713D01*
X517602Y210793D01*
X521198Y207198D01*
X522024Y206645D01*
X523000Y206451D01*
X620843D01*
X621818Y206645D01*
X622645Y207198D01*
X624873Y209425D01*
X626000Y209277D01*
X627263Y209443D01*
X628440Y209931D01*
X629451Y210707D01*
X630227Y211717D01*
X630714Y212894D01*
X630880Y214158D01*
X630714Y215421D01*
X630227Y216598D01*
X629451Y217608D01*
X628440Y218384D01*
X627263Y218871D01*
X626000Y219038D01*
X624737Y218871D01*
X623560Y218384D01*
X622549Y217608D01*
X621773Y216598D01*
X621286Y215421D01*
X621120Y214158D01*
X621268Y213030D01*
X619787Y211549D01*
X532165D01*
X531944Y211997D01*
X532023Y212100D01*
X532602Y213499D01*
X532701Y214250D01*
X527000D01*
Y215000D01*
X526250D01*
Y220701D01*
D02*
G37*
G36*
X527750D02*
Y215750D01*
X532701D01*
X532602Y216501D01*
X532023Y217900D01*
X531101Y219101D01*
X529900Y220023D01*
X528501Y220602D01*
X527750Y220701D01*
D02*
G37*
G36*
X447000Y219035D02*
X445956Y218897D01*
X444983Y218494D01*
X444147Y217853D01*
X443506Y217017D01*
X443103Y216044D01*
X442966Y215000D01*
X443103Y213956D01*
X443506Y212983D01*
X444147Y212147D01*
X444983Y211506D01*
X445956Y211103D01*
X447000Y210965D01*
X448044Y211103D01*
X449017Y211506D01*
X449853Y212147D01*
X450494Y212983D01*
X450897Y213956D01*
X451034Y215000D01*
X450897Y216044D01*
X450494Y217017D01*
X449853Y217853D01*
X449017Y218494D01*
X448044Y218897D01*
X447000Y219035D01*
D02*
G37*
G36*
X437000D02*
X435956Y218897D01*
X434983Y218494D01*
X434147Y217853D01*
X433506Y217017D01*
X433103Y216044D01*
X432966Y215000D01*
X433103Y213956D01*
X433506Y212983D01*
X434147Y212147D01*
X434983Y211506D01*
X435956Y211103D01*
X437000Y210965D01*
X438044Y211103D01*
X439017Y211506D01*
X439853Y212147D01*
X440494Y212983D01*
X440897Y213956D01*
X441035Y215000D01*
X440897Y216044D01*
X440494Y217017D01*
X439853Y217853D01*
X439017Y218494D01*
X438044Y218897D01*
X437000Y219035D01*
D02*
G37*
G36*
X488000Y236788D02*
X487019Y236659D01*
X486106Y236281D01*
X485321Y235679D01*
X484719Y234894D01*
X484341Y233980D01*
X484212Y233000D01*
X484341Y232019D01*
X484719Y231106D01*
X485321Y230321D01*
X486106Y229719D01*
X487019Y229341D01*
X488000Y229212D01*
X488980Y229341D01*
X489543Y229574D01*
X502903Y216214D01*
X502859Y216109D01*
X502713Y215000D01*
X502859Y213891D01*
X503288Y212857D01*
X503969Y211969D01*
X504857Y211288D01*
X505891Y210859D01*
X507000Y210713D01*
X508110Y210859D01*
X509143Y211288D01*
X510031Y211969D01*
X510712Y212857D01*
X511141Y213891D01*
X511287Y215000D01*
X511141Y216109D01*
X510712Y217143D01*
X510031Y218031D01*
X509143Y218712D01*
X508110Y219141D01*
X507000Y219287D01*
X505891Y219141D01*
X505786Y219097D01*
X491774Y233110D01*
X491659Y233980D01*
X491281Y234894D01*
X490679Y235679D01*
X489894Y236281D01*
X488980Y236659D01*
X488000Y236788D01*
D02*
G37*
G36*
X88000Y213288D02*
X87019Y213159D01*
X86106Y212781D01*
X85321Y212179D01*
X84719Y211394D01*
X84341Y210480D01*
X84212Y209500D01*
X84341Y208520D01*
X84719Y207606D01*
X85321Y206821D01*
X86106Y206219D01*
X87019Y205841D01*
X88000Y205712D01*
X88981Y205841D01*
X89894Y206219D01*
X90679Y206821D01*
X91281Y207606D01*
X91659Y208520D01*
X91788Y209500D01*
X91659Y210480D01*
X91281Y211394D01*
X90679Y212179D01*
X89894Y212781D01*
X88981Y213159D01*
X88000Y213288D01*
D02*
G37*
G36*
X32839Y214496D02*
X23162D01*
Y204819D01*
X32839D01*
Y207461D01*
X54830D01*
X55321Y206821D01*
X56106Y206219D01*
X57020Y205841D01*
X58000Y205712D01*
X58981Y205841D01*
X59894Y206219D01*
X60679Y206821D01*
X61281Y207606D01*
X61659Y208520D01*
X61788Y209500D01*
X61659Y210480D01*
X61281Y211394D01*
X60679Y212179D01*
X59894Y212781D01*
X58981Y213159D01*
X58000Y213288D01*
X57020Y213159D01*
X56106Y212781D01*
X55321Y212179D01*
X54830Y211539D01*
X32839D01*
Y214496D01*
D02*
G37*
G36*
X447000Y209034D02*
X445956Y208897D01*
X444983Y208494D01*
X444147Y207853D01*
X443506Y207017D01*
X443103Y206044D01*
X442966Y205000D01*
X443103Y203956D01*
X443506Y202983D01*
X444147Y202147D01*
X444983Y201506D01*
X445956Y201103D01*
X447000Y200965D01*
X448044Y201103D01*
X449017Y201506D01*
X449853Y202147D01*
X450494Y202983D01*
X450897Y203956D01*
X451034Y205000D01*
X450897Y206044D01*
X450494Y207017D01*
X449853Y207853D01*
X449017Y208494D01*
X448044Y208897D01*
X447000Y209034D01*
D02*
G37*
G36*
X437000D02*
X435956Y208897D01*
X434983Y208494D01*
X434147Y207853D01*
X433506Y207017D01*
X433103Y206044D01*
X432966Y205000D01*
X433103Y203956D01*
X433506Y202983D01*
X434147Y202147D01*
X434983Y201506D01*
X435956Y201103D01*
X437000Y200965D01*
X438044Y201103D01*
X439017Y201506D01*
X439853Y202147D01*
X440494Y202983D01*
X440897Y203956D01*
X441035Y205000D01*
X440897Y206044D01*
X440494Y207017D01*
X439853Y207853D01*
X439017Y208494D01*
X438044Y208897D01*
X437000Y209034D01*
D02*
G37*
G36*
X327551Y209342D02*
X326377Y209187D01*
X325282Y208734D01*
X324342Y208013D01*
X323621Y207072D01*
X323167Y205978D01*
X323012Y204803D01*
X323167Y203628D01*
X323621Y202534D01*
X324342Y201594D01*
X325282Y200872D01*
X326377Y200419D01*
X327551Y200264D01*
X328726Y200419D01*
X329821Y200872D01*
X330761Y201594D01*
X331482Y202534D01*
X331935Y203628D01*
X332090Y204803D01*
X331935Y205978D01*
X331482Y207072D01*
X330761Y208013D01*
X329821Y208734D01*
X328726Y209187D01*
X327551Y209342D01*
D02*
G37*
G36*
X317551D02*
X316376Y209187D01*
X315282Y208734D01*
X314342Y208013D01*
X313620Y207072D01*
X313167Y205978D01*
X313012Y204803D01*
X313167Y203628D01*
X313620Y202534D01*
X314342Y201594D01*
X315282Y200872D01*
X316376Y200419D01*
X317551Y200264D01*
X318726Y200419D01*
X319821Y200872D01*
X320761Y201594D01*
X321482Y202534D01*
X321935Y203628D01*
X322090Y204803D01*
X321935Y205978D01*
X321482Y207072D01*
X320761Y208013D01*
X319821Y208734D01*
X318726Y209187D01*
X317551Y209342D01*
D02*
G37*
G36*
X630839Y199181D02*
X621161D01*
Y196049D01*
X600026D01*
X599819Y196319D01*
X598993Y196953D01*
X598032Y197351D01*
X597000Y197487D01*
X595968Y197351D01*
X595007Y196953D01*
X594181Y196319D01*
X593974Y196049D01*
X575901D01*
X575531Y196531D01*
X574643Y197212D01*
X573609Y197641D01*
X572500Y197787D01*
X571390Y197641D01*
X570357Y197212D01*
X569469Y196531D01*
X568788Y195643D01*
X568359Y194609D01*
X568213Y193500D01*
X568359Y192391D01*
X568788Y191357D01*
X569469Y190469D01*
X570357Y189788D01*
X571390Y189359D01*
X572500Y189213D01*
X573609Y189359D01*
X574643Y189788D01*
X575531Y190469D01*
X575901Y190951D01*
X593974D01*
X594181Y190681D01*
X595007Y190047D01*
X595968Y189649D01*
X597000Y189513D01*
X598032Y189649D01*
X598993Y190047D01*
X599819Y190681D01*
X600026Y190951D01*
X621161D01*
Y189504D01*
X630839D01*
Y199181D01*
D02*
G37*
G36*
X517250Y198703D02*
X516628Y198621D01*
X515349Y198091D01*
X514252Y197249D01*
X513409Y196151D01*
X512879Y194872D01*
X512797Y194250D01*
X517250D01*
Y198703D01*
D02*
G37*
G36*
X447000Y199035D02*
X445956Y198897D01*
X444983Y198494D01*
X444147Y197853D01*
X443506Y197017D01*
X443103Y196044D01*
X442966Y195000D01*
X443103Y193956D01*
X443506Y192983D01*
X444147Y192147D01*
X444983Y191506D01*
X445956Y191103D01*
X447000Y190965D01*
X448044Y191103D01*
X449017Y191506D01*
X449853Y192147D01*
X450494Y192983D01*
X450897Y193956D01*
X451034Y195000D01*
X450897Y196044D01*
X450494Y197017D01*
X449853Y197853D01*
X449017Y198494D01*
X448044Y198897D01*
X447000Y199035D01*
D02*
G37*
G36*
X437000D02*
X435956Y198897D01*
X434983Y198494D01*
X434147Y197853D01*
X433506Y197017D01*
X433103Y196044D01*
X432966Y195000D01*
X433103Y193956D01*
X433506Y192983D01*
X434147Y192147D01*
X434983Y191506D01*
X435956Y191103D01*
X437000Y190965D01*
X438044Y191103D01*
X439017Y191506D01*
X439853Y192147D01*
X440494Y192983D01*
X440897Y193956D01*
X441035Y195000D01*
X440897Y196044D01*
X440494Y197017D01*
X439853Y197853D01*
X439017Y198494D01*
X438044Y198897D01*
X437000Y199035D01*
D02*
G37*
G36*
X28750Y196138D02*
Y190593D01*
X34295D01*
X34247Y191085D01*
X33885Y192280D01*
X33296Y193381D01*
X32504Y194346D01*
X31539Y195138D01*
X30437Y195727D01*
X29243Y196089D01*
X28750Y196138D01*
D02*
G37*
G36*
X27250D02*
X26757Y196089D01*
X25563Y195727D01*
X24462Y195138D01*
X23496Y194346D01*
X22704Y193381D01*
X22116Y192280D01*
X21753Y191085D01*
X21705Y190593D01*
X27250D01*
Y196138D01*
D02*
G37*
G36*
X317551Y199342D02*
X316376Y199187D01*
X315282Y198734D01*
X314342Y198012D01*
X313620Y197073D01*
X313167Y195978D01*
X313012Y194803D01*
X313167Y193628D01*
X313620Y192534D01*
X314342Y191594D01*
X315282Y190872D01*
X316376Y190419D01*
X317551Y190264D01*
X318726Y190419D01*
X319821Y190872D01*
X320761Y191594D01*
X321482Y192534D01*
X321935Y193628D01*
X322090Y194803D01*
X321935Y195978D01*
X321482Y197073D01*
X320761Y198012D01*
X319821Y198734D01*
X318726Y199187D01*
X317551Y199342D01*
D02*
G37*
G36*
X552500Y197787D02*
X551391Y197641D01*
X550357Y197212D01*
X549469Y196531D01*
X548788Y195643D01*
X548359Y194609D01*
X548213Y193500D01*
X548359Y192391D01*
X548788Y191357D01*
X549469Y190469D01*
X550357Y189788D01*
X551391Y189359D01*
X552500Y189213D01*
X553610Y189359D01*
X554643Y189788D01*
X555531Y190469D01*
X556212Y191357D01*
X556641Y192391D01*
X556787Y193500D01*
X556641Y194609D01*
X556212Y195643D01*
X555531Y196531D01*
X554643Y197212D01*
X553610Y197641D01*
X552500Y197787D01*
D02*
G37*
G36*
X517250Y192750D02*
X512797D01*
X512879Y192128D01*
X513409Y190849D01*
X514252Y189751D01*
X515349Y188909D01*
X516628Y188379D01*
X517250Y188297D01*
Y192750D01*
D02*
G37*
G36*
X327551Y199342D02*
X326377Y199187D01*
X325282Y198734D01*
X324342Y198012D01*
X323621Y197073D01*
X323167Y195978D01*
X323012Y194803D01*
X323167Y193628D01*
X323621Y192534D01*
X324342Y191594D01*
X325249Y190897D01*
X325272Y190666D01*
X325266Y190551D01*
X325216Y190358D01*
X324202Y189816D01*
X323288Y189066D01*
X322538Y188153D01*
X321996Y187138D01*
X321804Y187088D01*
X321688Y187083D01*
X321457Y187105D01*
X320761Y188013D01*
X319821Y188734D01*
X318726Y189187D01*
X317551Y189342D01*
X316376Y189187D01*
X315282Y188734D01*
X314342Y188013D01*
X313620Y187073D01*
X313167Y185978D01*
X313012Y184803D01*
X313167Y183628D01*
X313620Y182534D01*
X314342Y181594D01*
X315282Y180872D01*
X316376Y180419D01*
X317551Y180264D01*
X318726Y180419D01*
X319821Y180872D01*
X320761Y181594D01*
X321457Y182501D01*
X321688Y182524D01*
X321804Y182518D01*
X321996Y182468D01*
X322538Y181454D01*
X323288Y180540D01*
X324202Y179790D01*
X325244Y179233D01*
X326375Y178890D01*
X326801Y178848D01*
Y184803D01*
X327551D01*
Y185553D01*
X333506D01*
X333464Y185979D01*
X333121Y187110D01*
X332564Y188153D01*
X331814Y189066D01*
X330901Y189816D01*
X329886Y190358D01*
X329836Y190551D01*
X329831Y190666D01*
X329853Y190897D01*
X330761Y191594D01*
X331482Y192534D01*
X331935Y193628D01*
X332090Y194803D01*
X331935Y195978D01*
X331482Y197073D01*
X330761Y198012D01*
X329821Y198734D01*
X328726Y199187D01*
X327551Y199342D01*
D02*
G37*
G36*
X34295Y189093D02*
X28750D01*
Y183547D01*
X29243Y183596D01*
X30437Y183958D01*
X31539Y184547D01*
X32504Y185339D01*
X33296Y186304D01*
X33885Y187405D01*
X34247Y188600D01*
X34295Y189093D01*
D02*
G37*
G36*
X27250D02*
X21705D01*
X21753Y188600D01*
X22116Y187405D01*
X22704Y186304D01*
X23496Y185339D01*
X24462Y184547D01*
X25563Y183958D01*
X26757Y183596D01*
X27250Y183547D01*
Y189093D01*
D02*
G37*
G36*
X518750Y198703D02*
Y193500D01*
Y188297D01*
X519372Y188379D01*
X520651Y188909D01*
X521748Y189751D01*
X522591Y190849D01*
X522935Y191679D01*
X523476D01*
X523547Y191507D01*
X524181Y190681D01*
X525007Y190047D01*
X525968Y189649D01*
X527000Y189513D01*
X528032Y189649D01*
X528993Y190047D01*
X529819Y190681D01*
X530026Y190951D01*
X535944D01*
X543198Y183698D01*
X544025Y183145D01*
X545000Y182951D01*
X557000D01*
X557975Y183145D01*
X558802Y183698D01*
X564302Y189198D01*
X564753Y189872D01*
X565531Y190469D01*
X566212Y191357D01*
X566641Y192391D01*
X566787Y193500D01*
X566641Y194609D01*
X566212Y195643D01*
X565531Y196531D01*
X564643Y197212D01*
X563610Y197641D01*
X562500Y197787D01*
X561390Y197641D01*
X560357Y197212D01*
X559469Y196531D01*
X558788Y195643D01*
X558359Y194609D01*
X558213Y193500D01*
X558359Y192391D01*
X558788Y191357D01*
X558989Y191094D01*
X555944Y188049D01*
X546056D01*
X538802Y195302D01*
X537976Y195855D01*
X537000Y196049D01*
X530026D01*
X529819Y196319D01*
X528993Y196953D01*
X528032Y197351D01*
X527000Y197487D01*
X525968Y197351D01*
X525007Y196953D01*
X524181Y196319D01*
X523547Y195493D01*
X523476Y195321D01*
X522935D01*
X522591Y196151D01*
X521748Y197249D01*
X520651Y198091D01*
X519372Y198621D01*
X518750Y198703D01*
D02*
G37*
G36*
X447000Y189034D02*
X445956Y188897D01*
X444983Y188494D01*
X444147Y187853D01*
X443506Y187017D01*
X443103Y186044D01*
X442966Y185000D01*
X443103Y183956D01*
X443506Y182983D01*
X444147Y182147D01*
X444983Y181506D01*
X445956Y181103D01*
X447000Y180965D01*
X448044Y181103D01*
X449017Y181506D01*
X449853Y182147D01*
X450494Y182983D01*
X450897Y183956D01*
X451034Y185000D01*
X450897Y186044D01*
X450494Y187017D01*
X449853Y187853D01*
X449017Y188494D01*
X448044Y188897D01*
X447000Y189034D01*
D02*
G37*
G36*
X437000D02*
X435956Y188897D01*
X434983Y188494D01*
X434147Y187853D01*
X433506Y187017D01*
X433103Y186044D01*
X432966Y185000D01*
X433103Y183956D01*
X433506Y182983D01*
X434147Y182147D01*
X434983Y181506D01*
X435956Y181103D01*
X437000Y180965D01*
X438044Y181103D01*
X439017Y181506D01*
X439853Y182147D01*
X440494Y182983D01*
X440897Y183956D01*
X441035Y185000D01*
X440897Y186044D01*
X440494Y187017D01*
X439853Y187853D01*
X439017Y188494D01*
X438044Y188897D01*
X437000Y189034D01*
D02*
G37*
G36*
X333506Y184053D02*
X328301D01*
Y178848D01*
X328727Y178890D01*
X329858Y179233D01*
X330901Y179790D01*
X331814Y180540D01*
X332564Y181454D01*
X333121Y182496D01*
X333464Y183627D01*
X333506Y184053D01*
D02*
G37*
G36*
X526250Y181201D02*
X525499Y181102D01*
X524100Y180523D01*
X522899Y179601D01*
X521977Y178400D01*
X521459Y177148D01*
X520970Y177106D01*
X520931Y177116D01*
X520712Y177643D01*
X520031Y178531D01*
X519143Y179212D01*
X518110Y179641D01*
X517000Y179787D01*
X515891Y179641D01*
X514857Y179212D01*
X513969Y178531D01*
X513288Y177643D01*
X512859Y176610D01*
X512713Y175500D01*
X512859Y174390D01*
X513288Y173357D01*
X513969Y172469D01*
X514857Y171788D01*
X515891Y171359D01*
X517000Y171213D01*
X517602Y171293D01*
X521198Y167698D01*
X522024Y167145D01*
X523000Y166951D01*
X620843D01*
X621818Y167145D01*
X622645Y167698D01*
X624873Y169925D01*
X626000Y169777D01*
X627263Y169943D01*
X628440Y170431D01*
X629451Y171207D01*
X630227Y172217D01*
X630714Y173394D01*
X630880Y174657D01*
X630714Y175921D01*
X630227Y177098D01*
X629451Y178108D01*
X628440Y178884D01*
X627263Y179372D01*
X626000Y179538D01*
X624737Y179372D01*
X623560Y178884D01*
X622549Y178108D01*
X621773Y177098D01*
X621286Y175921D01*
X621120Y174657D01*
X621268Y173530D01*
X619787Y172049D01*
X532165D01*
X531944Y172497D01*
X532023Y172600D01*
X532602Y173999D01*
X532701Y174750D01*
X527000D01*
Y175500D01*
X526250D01*
Y181201D01*
D02*
G37*
G36*
X527750D02*
Y176250D01*
X532701D01*
X532602Y177001D01*
X532023Y178400D01*
X531101Y179601D01*
X529900Y180523D01*
X528501Y181102D01*
X527750Y181201D01*
D02*
G37*
G36*
X488000Y197288D02*
X487019Y197159D01*
X486106Y196781D01*
X485321Y196179D01*
X484719Y195394D01*
X484341Y194481D01*
X484212Y193500D01*
X484341Y192519D01*
X484719Y191606D01*
X485321Y190821D01*
X486106Y190219D01*
X487019Y189841D01*
X488000Y189712D01*
X488980Y189841D01*
X489543Y190074D01*
X502903Y176714D01*
X502859Y176610D01*
X502713Y175500D01*
X502859Y174390D01*
X503288Y173357D01*
X503969Y172469D01*
X504857Y171788D01*
X505891Y171359D01*
X507000Y171213D01*
X508110Y171359D01*
X509143Y171788D01*
X510031Y172469D01*
X510712Y173357D01*
X511141Y174390D01*
X511287Y175500D01*
X511141Y176610D01*
X510712Y177643D01*
X510031Y178531D01*
X509143Y179212D01*
X508110Y179641D01*
X507000Y179787D01*
X505891Y179641D01*
X505786Y179597D01*
X491774Y193610D01*
X491659Y194481D01*
X491281Y195394D01*
X490679Y196179D01*
X489894Y196781D01*
X488980Y197159D01*
X488000Y197288D01*
D02*
G37*
G36*
X447000Y179034D02*
X445956Y178897D01*
X444983Y178494D01*
X444147Y177853D01*
X443506Y177017D01*
X443103Y176044D01*
X442966Y175000D01*
X443103Y173956D01*
X443506Y172983D01*
X444147Y172147D01*
X444983Y171506D01*
X445956Y171103D01*
X447000Y170966D01*
X448044Y171103D01*
X449017Y171506D01*
X449853Y172147D01*
X450494Y172983D01*
X450897Y173956D01*
X451034Y175000D01*
X450897Y176044D01*
X450494Y177017D01*
X449853Y177853D01*
X449017Y178494D01*
X448044Y178897D01*
X447000Y179034D01*
D02*
G37*
G36*
X437000D02*
X435956Y178897D01*
X434983Y178494D01*
X434147Y177853D01*
X433506Y177017D01*
X433103Y176044D01*
X432966Y175000D01*
X433103Y173956D01*
X433506Y172983D01*
X434147Y172147D01*
X434983Y171506D01*
X435956Y171103D01*
X437000Y170966D01*
X438044Y171103D01*
X439017Y171506D01*
X439853Y172147D01*
X440494Y172983D01*
X440897Y173956D01*
X441035Y175000D01*
X440897Y176044D01*
X440494Y177017D01*
X439853Y177853D01*
X439017Y178494D01*
X438044Y178897D01*
X437000Y179034D01*
D02*
G37*
G36*
X88000Y173788D02*
X87019Y173659D01*
X86106Y173281D01*
X85321Y172679D01*
X84719Y171894D01*
X84341Y170981D01*
X84212Y170000D01*
X84341Y169019D01*
X84719Y168106D01*
X85321Y167321D01*
X86106Y166719D01*
X87019Y166341D01*
X88000Y166212D01*
X88981Y166341D01*
X89894Y166719D01*
X90679Y167321D01*
X91281Y168106D01*
X91659Y169019D01*
X91788Y170000D01*
X91659Y170981D01*
X91281Y171894D01*
X90679Y172679D01*
X89894Y173281D01*
X88981Y173659D01*
X88000Y173788D01*
D02*
G37*
G36*
X32839Y174996D02*
X23162D01*
Y165319D01*
X32839D01*
Y167961D01*
X54830D01*
X55321Y167321D01*
X56106Y166719D01*
X57020Y166341D01*
X58000Y166212D01*
X58981Y166341D01*
X59894Y166719D01*
X60679Y167321D01*
X61281Y168106D01*
X61659Y169019D01*
X61788Y170000D01*
X61659Y170981D01*
X61281Y171894D01*
X60679Y172679D01*
X59894Y173281D01*
X58981Y173659D01*
X58000Y173788D01*
X57020Y173659D01*
X56106Y173281D01*
X55321Y172679D01*
X54830Y172039D01*
X32839D01*
Y174996D01*
D02*
G37*
G36*
X447000Y169035D02*
X445956Y168897D01*
X444983Y168494D01*
X444147Y167853D01*
X443506Y167017D01*
X443103Y166044D01*
X442966Y165000D01*
X443103Y163956D01*
X443506Y162983D01*
X444147Y162147D01*
X444983Y161506D01*
X445956Y161103D01*
X447000Y160966D01*
X448044Y161103D01*
X449017Y161506D01*
X449853Y162147D01*
X450494Y162983D01*
X450897Y163956D01*
X451034Y165000D01*
X450897Y166044D01*
X450494Y167017D01*
X449853Y167853D01*
X449017Y168494D01*
X448044Y168897D01*
X447000Y169035D01*
D02*
G37*
G36*
X437000D02*
X435956Y168897D01*
X434983Y168494D01*
X434147Y167853D01*
X433506Y167017D01*
X433103Y166044D01*
X432966Y165000D01*
X433103Y163956D01*
X433506Y162983D01*
X434147Y162147D01*
X434983Y161506D01*
X435956Y161103D01*
X437000Y160966D01*
X438044Y161103D01*
X439017Y161506D01*
X439853Y162147D01*
X440494Y162983D01*
X440897Y163956D01*
X441035Y165000D01*
X440897Y166044D01*
X440494Y167017D01*
X439853Y167853D01*
X439017Y168494D01*
X438044Y168897D01*
X437000Y169035D01*
D02*
G37*
G36*
X630839Y159681D02*
X621161D01*
Y156549D01*
X600026D01*
X599819Y156819D01*
X598993Y157453D01*
X598032Y157851D01*
X597000Y157987D01*
X595968Y157851D01*
X595007Y157453D01*
X594181Y156819D01*
X593974Y156549D01*
X575901D01*
X575531Y157031D01*
X574643Y157712D01*
X573609Y158141D01*
X572500Y158287D01*
X571390Y158141D01*
X570357Y157712D01*
X569469Y157031D01*
X568788Y156143D01*
X568359Y155110D01*
X568213Y154000D01*
X568359Y152891D01*
X568788Y151857D01*
X569469Y150969D01*
X570357Y150288D01*
X571390Y149859D01*
X572500Y149713D01*
X573609Y149859D01*
X574643Y150288D01*
X575531Y150969D01*
X575901Y151451D01*
X593974D01*
X594181Y151181D01*
X595007Y150547D01*
X595968Y150149D01*
X597000Y150013D01*
X598032Y150149D01*
X598993Y150547D01*
X599819Y151181D01*
X600026Y151451D01*
X621161D01*
Y150004D01*
X630839D01*
Y159681D01*
D02*
G37*
G36*
X517250Y159203D02*
X516628Y159121D01*
X515349Y158591D01*
X514252Y157749D01*
X513409Y156651D01*
X512879Y155372D01*
X512797Y154750D01*
X517250D01*
Y159203D01*
D02*
G37*
G36*
X28750Y156638D02*
Y151093D01*
X34295D01*
X34247Y151585D01*
X33885Y152780D01*
X33296Y153881D01*
X32504Y154846D01*
X31539Y155638D01*
X30437Y156227D01*
X29243Y156589D01*
X28750Y156638D01*
D02*
G37*
G36*
X27250D02*
X26757Y156589D01*
X25563Y156227D01*
X24462Y155638D01*
X23496Y154846D01*
X22704Y153881D01*
X22116Y152780D01*
X21753Y151585D01*
X21705Y151093D01*
X27250D01*
Y156638D01*
D02*
G37*
G36*
X447000Y159035D02*
X445956Y158897D01*
X444983Y158494D01*
X444147Y157853D01*
X443506Y157017D01*
X443103Y156044D01*
X442966Y155000D01*
X443103Y153956D01*
X443506Y152983D01*
X444147Y152147D01*
X444983Y151506D01*
X445956Y151103D01*
X447000Y150965D01*
X448044Y151103D01*
X449017Y151506D01*
X449853Y152147D01*
X450494Y152983D01*
X450897Y153956D01*
X451034Y155000D01*
X450897Y156044D01*
X450494Y157017D01*
X449853Y157853D01*
X449017Y158494D01*
X448044Y158897D01*
X447000Y159035D01*
D02*
G37*
G36*
X437000D02*
X435956Y158897D01*
X434983Y158494D01*
X434147Y157853D01*
X433506Y157017D01*
X433103Y156044D01*
X432966Y155000D01*
X433103Y153956D01*
X433506Y152983D01*
X434147Y152147D01*
X434983Y151506D01*
X435956Y151103D01*
X437000Y150965D01*
X438044Y151103D01*
X439017Y151506D01*
X439853Y152147D01*
X440494Y152983D01*
X440897Y153956D01*
X441035Y155000D01*
X440897Y156044D01*
X440494Y157017D01*
X439853Y157853D01*
X439017Y158494D01*
X438044Y158897D01*
X437000Y159035D01*
D02*
G37*
G36*
X552500Y158287D02*
X551391Y158141D01*
X550357Y157712D01*
X549469Y157031D01*
X548788Y156143D01*
X548359Y155110D01*
X548213Y154000D01*
X548359Y152891D01*
X548788Y151857D01*
X549469Y150969D01*
X550357Y150288D01*
X551391Y149859D01*
X552500Y149713D01*
X553610Y149859D01*
X554643Y150288D01*
X555531Y150969D01*
X556212Y151857D01*
X556641Y152891D01*
X556787Y154000D01*
X556641Y155110D01*
X556212Y156143D01*
X555531Y157031D01*
X554643Y157712D01*
X553610Y158141D01*
X552500Y158287D01*
D02*
G37*
G36*
X517250Y153250D02*
X512797D01*
X512879Y152628D01*
X513409Y151349D01*
X514252Y150251D01*
X515349Y149409D01*
X516628Y148879D01*
X517250Y148798D01*
Y153250D01*
D02*
G37*
G36*
X34295Y149593D02*
X28750D01*
Y144047D01*
X29243Y144096D01*
X30437Y144458D01*
X31539Y145047D01*
X32504Y145839D01*
X33296Y146804D01*
X33885Y147905D01*
X34247Y149100D01*
X34295Y149593D01*
D02*
G37*
G36*
X27250D02*
X21705D01*
X21753Y149100D01*
X22116Y147905D01*
X22704Y146804D01*
X23496Y145839D01*
X24462Y145047D01*
X25563Y144458D01*
X26757Y144096D01*
X27250Y144047D01*
Y149593D01*
D02*
G37*
G36*
X518750Y159203D02*
Y154000D01*
X518000D01*
D01*
X518750D01*
Y148798D01*
X519372Y148879D01*
X520651Y149409D01*
X521748Y150251D01*
X522591Y151349D01*
X522935Y152179D01*
X523476D01*
X523547Y152007D01*
X524181Y151181D01*
X525007Y150547D01*
X525968Y150149D01*
X527000Y150013D01*
X528032Y150149D01*
X528993Y150547D01*
X529819Y151181D01*
X530026Y151451D01*
X535944D01*
X543198Y144198D01*
X544025Y143645D01*
X545000Y143451D01*
X557000D01*
X557975Y143645D01*
X558802Y144198D01*
X564302Y149698D01*
X564753Y150372D01*
X565531Y150969D01*
X566212Y151857D01*
X566641Y152891D01*
X566787Y154000D01*
X566641Y155110D01*
X566212Y156143D01*
X565531Y157031D01*
X564643Y157712D01*
X563610Y158141D01*
X562500Y158287D01*
X561390Y158141D01*
X560357Y157712D01*
X559469Y157031D01*
X558788Y156143D01*
X558359Y155110D01*
X558213Y154000D01*
X558359Y152891D01*
X558788Y151857D01*
X558989Y151594D01*
X555944Y148549D01*
X546056D01*
X538802Y155802D01*
X537976Y156355D01*
X537000Y156549D01*
X530026D01*
X529819Y156819D01*
X528993Y157453D01*
X528032Y157851D01*
X527000Y157987D01*
X525968Y157851D01*
X525007Y157453D01*
X524181Y156819D01*
X523547Y155993D01*
X523476Y155821D01*
X522935D01*
X522591Y156651D01*
X521748Y157749D01*
X520651Y158591D01*
X519372Y159121D01*
X518750Y159203D01*
D02*
G37*
G36*
X447000Y149035D02*
X445956Y148897D01*
X444983Y148494D01*
X444147Y147853D01*
X443506Y147017D01*
X443103Y146044D01*
X442966Y145000D01*
X443103Y143956D01*
X443506Y142983D01*
X444147Y142147D01*
X444983Y141506D01*
X445956Y141103D01*
X447000Y140965D01*
X448044Y141103D01*
X449017Y141506D01*
X449853Y142147D01*
X450494Y142983D01*
X450897Y143956D01*
X451034Y145000D01*
X450897Y146044D01*
X450494Y147017D01*
X449853Y147853D01*
X449017Y148494D01*
X448044Y148897D01*
X447000Y149035D01*
D02*
G37*
G36*
X437000D02*
X435956Y148897D01*
X434983Y148494D01*
X434147Y147853D01*
X433506Y147017D01*
X433103Y146044D01*
X432966Y145000D01*
X433103Y143956D01*
X433506Y142983D01*
X434147Y142147D01*
X434983Y141506D01*
X435956Y141103D01*
X437000Y140965D01*
X438044Y141103D01*
X439017Y141506D01*
X439853Y142147D01*
X440494Y142983D01*
X440897Y143956D01*
X441035Y145000D01*
X440897Y146044D01*
X440494Y147017D01*
X439853Y147853D01*
X439017Y148494D01*
X438044Y148897D01*
X437000Y149035D01*
D02*
G37*
G36*
X526250Y141701D02*
X525499Y141602D01*
X524100Y141023D01*
X522899Y140101D01*
X521977Y138900D01*
X521459Y137648D01*
X520970Y137606D01*
X520931Y137616D01*
X520712Y138143D01*
X520031Y139031D01*
X519143Y139712D01*
X518110Y140141D01*
X517000Y140287D01*
X515891Y140141D01*
X514857Y139712D01*
X513969Y139031D01*
X513288Y138143D01*
X512859Y137109D01*
X512713Y136000D01*
X512859Y134890D01*
X513288Y133857D01*
X513969Y132969D01*
X514857Y132288D01*
X515891Y131859D01*
X517000Y131713D01*
X517602Y131793D01*
X521198Y128198D01*
X522024Y127645D01*
X523000Y127451D01*
X620843D01*
X621818Y127645D01*
X622645Y128198D01*
X624873Y130426D01*
X626000Y130277D01*
X627263Y130443D01*
X628440Y130931D01*
X629451Y131707D01*
X630227Y132717D01*
X630714Y133894D01*
X630880Y135158D01*
X630714Y136421D01*
X630227Y137598D01*
X629451Y138608D01*
X628440Y139384D01*
X627263Y139872D01*
X626000Y140038D01*
X624737Y139872D01*
X623560Y139384D01*
X622549Y138608D01*
X621773Y137598D01*
X621286Y136421D01*
X621120Y135158D01*
X621268Y134030D01*
X619787Y132549D01*
X532165D01*
X531944Y132997D01*
X532023Y133100D01*
X532602Y134499D01*
X532701Y135250D01*
X527000D01*
Y136000D01*
X526250D01*
Y141701D01*
D02*
G37*
G36*
X527750D02*
Y136750D01*
X532701D01*
X532602Y137501D01*
X532023Y138900D01*
X531101Y140101D01*
X529900Y141023D01*
X528501Y141602D01*
X527750Y141701D01*
D02*
G37*
G36*
X488000Y157788D02*
X487019Y157659D01*
X486106Y157281D01*
X485321Y156679D01*
X484719Y155894D01*
X484341Y154981D01*
X484212Y154000D01*
X484341Y153019D01*
X484719Y152106D01*
X485321Y151321D01*
X486106Y150719D01*
X487019Y150341D01*
X488000Y150212D01*
X488980Y150341D01*
X489543Y150574D01*
X502903Y137214D01*
X502859Y137109D01*
X502713Y136000D01*
X502859Y134890D01*
X503288Y133857D01*
X503969Y132969D01*
X504857Y132288D01*
X505891Y131859D01*
X507000Y131713D01*
X508110Y131859D01*
X509143Y132288D01*
X510031Y132969D01*
X510712Y133857D01*
X511141Y134890D01*
X511287Y136000D01*
X511141Y137109D01*
X510712Y138143D01*
X510031Y139031D01*
X509143Y139712D01*
X508110Y140141D01*
X507000Y140287D01*
X505891Y140141D01*
X505786Y140097D01*
X491774Y154110D01*
X491659Y154981D01*
X491281Y155894D01*
X490679Y156679D01*
X489894Y157281D01*
X488980Y157659D01*
X488000Y157788D01*
D02*
G37*
G36*
X447000Y139034D02*
X445956Y138897D01*
X444983Y138494D01*
X444147Y137853D01*
X443506Y137017D01*
X443103Y136044D01*
X442966Y135000D01*
X443103Y133956D01*
X443506Y132983D01*
X444147Y132147D01*
X444983Y131506D01*
X445956Y131103D01*
X447000Y130965D01*
X448044Y131103D01*
X449017Y131506D01*
X449853Y132147D01*
X450494Y132983D01*
X450897Y133956D01*
X451034Y135000D01*
X450897Y136044D01*
X450494Y137017D01*
X449853Y137853D01*
X449017Y138494D01*
X448044Y138897D01*
X447000Y139034D01*
D02*
G37*
G36*
X437000D02*
X435956Y138897D01*
X434983Y138494D01*
X434147Y137853D01*
X433506Y137017D01*
X433103Y136044D01*
X432966Y135000D01*
X433103Y133956D01*
X433506Y132983D01*
X434147Y132147D01*
X434983Y131506D01*
X435956Y131103D01*
X437000Y130965D01*
X438044Y131103D01*
X439017Y131506D01*
X439853Y132147D01*
X440494Y132983D01*
X440897Y133956D01*
X441035Y135000D01*
X440897Y136044D01*
X440494Y137017D01*
X439853Y137853D01*
X439017Y138494D01*
X438044Y138897D01*
X437000Y139034D01*
D02*
G37*
G36*
X88000Y134288D02*
X87019Y134159D01*
X86106Y133781D01*
X85321Y133179D01*
X84719Y132394D01*
X84341Y131481D01*
X84212Y130500D01*
X84341Y129519D01*
X84719Y128606D01*
X85321Y127821D01*
X86106Y127219D01*
X87019Y126841D01*
X88000Y126712D01*
X88981Y126841D01*
X89894Y127219D01*
X90679Y127821D01*
X91281Y128606D01*
X91659Y129519D01*
X91788Y130500D01*
X91659Y131481D01*
X91281Y132394D01*
X90679Y133179D01*
X89894Y133781D01*
X88981Y134159D01*
X88000Y134288D01*
D02*
G37*
G36*
X32839Y135496D02*
X23162D01*
Y125819D01*
X32839D01*
Y128461D01*
X54830D01*
X55321Y127821D01*
X56106Y127219D01*
X57020Y126841D01*
X58000Y126712D01*
X58981Y126841D01*
X59894Y127219D01*
X60679Y127821D01*
X61281Y128606D01*
X61659Y129519D01*
X61788Y130500D01*
X61659Y131481D01*
X61281Y132394D01*
X60679Y133179D01*
X59894Y133781D01*
X58981Y134159D01*
X58000Y134288D01*
X57020Y134159D01*
X56106Y133781D01*
X55321Y133179D01*
X54830Y132539D01*
X32839D01*
Y135496D01*
D02*
G37*
G36*
X447000Y129034D02*
X445956Y128897D01*
X444983Y128494D01*
X444147Y127853D01*
X443506Y127017D01*
X443103Y126044D01*
X442966Y125000D01*
X443103Y123956D01*
X443506Y122983D01*
X444147Y122147D01*
X444983Y121506D01*
X445956Y121103D01*
X446672Y121009D01*
Y120504D01*
X445564Y120358D01*
X444226Y119804D01*
X443077Y118923D01*
X442293Y117900D01*
X442127Y117858D01*
X441873D01*
X441707Y117900D01*
X440923Y118923D01*
X439774Y119804D01*
X438436Y120358D01*
X437328Y120504D01*
Y121009D01*
X438044Y121103D01*
X439017Y121506D01*
X439853Y122147D01*
X440494Y122983D01*
X440897Y123956D01*
X441035Y125000D01*
X440897Y126044D01*
X440494Y127017D01*
X439853Y127853D01*
X439017Y128494D01*
X438044Y128897D01*
X437000Y129034D01*
X435956Y128897D01*
X434983Y128494D01*
X434147Y127853D01*
X433506Y127017D01*
X433103Y126044D01*
X432966Y125000D01*
X433103Y123956D01*
X433506Y122983D01*
X434147Y122147D01*
X434983Y121506D01*
X435956Y121103D01*
X436672Y121009D01*
Y120504D01*
X435564Y120358D01*
X434226Y119804D01*
X433077Y118923D01*
X432196Y117774D01*
X431642Y116436D01*
X431551Y115750D01*
X437000D01*
Y115000D01*
X437750D01*
Y109551D01*
X438436Y109642D01*
X439774Y110196D01*
X440923Y111077D01*
X441707Y112100D01*
X441873Y112143D01*
X442127D01*
X442293Y112100D01*
X443077Y111077D01*
X444226Y110196D01*
X445564Y109642D01*
X446250Y109551D01*
Y115000D01*
X447000D01*
Y115750D01*
X452449D01*
X452358Y116436D01*
X451804Y117774D01*
X450923Y118923D01*
X449774Y119804D01*
X448436Y120358D01*
X447328Y120504D01*
Y121009D01*
X448044Y121103D01*
X449017Y121506D01*
X449853Y122147D01*
X450494Y122983D01*
X450897Y123956D01*
X451034Y125000D01*
X450897Y126044D01*
X450494Y127017D01*
X449853Y127853D01*
X449017Y128494D01*
X448044Y128897D01*
X447000Y129034D01*
D02*
G37*
G36*
X630839Y120181D02*
X621161D01*
Y117049D01*
X600026D01*
X599819Y117319D01*
X598993Y117953D01*
X598032Y118351D01*
X597000Y118487D01*
X595968Y118351D01*
X595007Y117953D01*
X594181Y117319D01*
X593974Y117049D01*
X575901D01*
X575531Y117531D01*
X574643Y118212D01*
X573609Y118641D01*
X572500Y118787D01*
X571390Y118641D01*
X570357Y118212D01*
X569469Y117531D01*
X568788Y116643D01*
X568359Y115610D01*
X568213Y114500D01*
X568359Y113391D01*
X568788Y112357D01*
X569469Y111469D01*
X570357Y110788D01*
X571390Y110359D01*
X572500Y110213D01*
X573609Y110359D01*
X574643Y110788D01*
X575531Y111469D01*
X575901Y111951D01*
X593974D01*
X594181Y111681D01*
X595007Y111047D01*
X595968Y110649D01*
X597000Y110513D01*
X598032Y110649D01*
X598993Y111047D01*
X599819Y111681D01*
X600026Y111951D01*
X621161D01*
Y110504D01*
X630839D01*
Y120181D01*
D02*
G37*
G36*
X517250Y119702D02*
X516628Y119621D01*
X515349Y119091D01*
X514252Y118249D01*
X513409Y117151D01*
X512879Y115872D01*
X512797Y115250D01*
X517250D01*
Y119702D01*
D02*
G37*
G36*
X28750Y117138D02*
Y111593D01*
X34295D01*
X34247Y112085D01*
X33885Y113280D01*
X33296Y114381D01*
X32504Y115346D01*
X31539Y116138D01*
X30437Y116727D01*
X29243Y117089D01*
X28750Y117138D01*
D02*
G37*
G36*
X27250D02*
X26757Y117089D01*
X25563Y116727D01*
X24462Y116138D01*
X23496Y115346D01*
X22704Y114381D01*
X22116Y113280D01*
X21753Y112085D01*
X21705Y111593D01*
X27250D01*
Y117138D01*
D02*
G37*
G36*
X552500Y118787D02*
X551391Y118641D01*
X550357Y118212D01*
X549469Y117531D01*
X548788Y116643D01*
X548359Y115610D01*
X548213Y114500D01*
X548359Y113391D01*
X548788Y112357D01*
X549469Y111469D01*
X550357Y110788D01*
X551391Y110359D01*
X552500Y110213D01*
X553610Y110359D01*
X554643Y110788D01*
X555531Y111469D01*
X556212Y112357D01*
X556641Y113391D01*
X556787Y114500D01*
X556641Y115610D01*
X556212Y116643D01*
X555531Y117531D01*
X554643Y118212D01*
X553610Y118641D01*
X552500Y118787D01*
D02*
G37*
G36*
X436250Y114250D02*
X431551D01*
X431642Y113564D01*
X432196Y112226D01*
X433077Y111077D01*
X434226Y110196D01*
X435564Y109642D01*
X436250Y109551D01*
Y114250D01*
D02*
G37*
G36*
X452449D02*
X447750D01*
Y109551D01*
X448436Y109642D01*
X449774Y110196D01*
X450923Y111077D01*
X451804Y112226D01*
X452358Y113564D01*
X452449Y114250D01*
D02*
G37*
G36*
X517250Y113750D02*
X512797D01*
X512879Y113128D01*
X513409Y111849D01*
X514252Y110751D01*
X515349Y109909D01*
X516628Y109379D01*
X517250Y109298D01*
Y113750D01*
D02*
G37*
G36*
X327000Y122335D02*
X325569Y122194D01*
X324193Y121776D01*
X322925Y121098D01*
X321814Y120186D01*
X320902Y119075D01*
X320224Y117807D01*
X319806Y116431D01*
X319666Y115000D01*
X319806Y113569D01*
X320224Y112193D01*
X320902Y110925D01*
X321814Y109814D01*
X322925Y108902D01*
X324193Y108224D01*
X325569Y107806D01*
X327000Y107666D01*
X328431Y107806D01*
X329807Y108224D01*
X331075Y108902D01*
X332186Y109814D01*
X333098Y110925D01*
X333776Y112193D01*
X334194Y113569D01*
X334334Y115000D01*
X334194Y116431D01*
X333776Y117807D01*
X333098Y119075D01*
X332186Y120186D01*
X331075Y121098D01*
X329807Y121776D01*
X328431Y122194D01*
X327000Y122335D01*
D02*
G37*
G36*
X34295Y110093D02*
X28750D01*
Y104547D01*
X29243Y104596D01*
X30437Y104958D01*
X31539Y105547D01*
X32504Y106339D01*
X33296Y107304D01*
X33885Y108405D01*
X34247Y109600D01*
X34295Y110093D01*
D02*
G37*
G36*
X27250D02*
X21705D01*
X21753Y109600D01*
X22116Y108405D01*
X22704Y107304D01*
X23496Y106339D01*
X24462Y105547D01*
X25563Y104958D01*
X26757Y104596D01*
X27250Y104547D01*
Y110093D01*
D02*
G37*
G36*
X518750Y119702D02*
Y114500D01*
Y109298D01*
X519372Y109379D01*
X520651Y109909D01*
X521748Y110751D01*
X522591Y111849D01*
X522935Y112679D01*
X523476D01*
X523547Y112507D01*
X524181Y111681D01*
X525007Y111047D01*
X525968Y110649D01*
X527000Y110513D01*
X528032Y110649D01*
X528993Y111047D01*
X529819Y111681D01*
X530026Y111951D01*
X535944D01*
X543198Y104698D01*
X544025Y104145D01*
X545000Y103951D01*
X557000D01*
X557975Y104145D01*
X558802Y104698D01*
X564302Y110198D01*
X564753Y110872D01*
X565531Y111469D01*
X566212Y112357D01*
X566641Y113391D01*
X566787Y114500D01*
X566641Y115610D01*
X566212Y116643D01*
X565531Y117531D01*
X564643Y118212D01*
X563610Y118641D01*
X562500Y118787D01*
X561390Y118641D01*
X560357Y118212D01*
X559469Y117531D01*
X558788Y116643D01*
X558359Y115610D01*
X558213Y114500D01*
X558359Y113391D01*
X558788Y112357D01*
X558989Y112094D01*
X555944Y109049D01*
X546056D01*
X538802Y116302D01*
X537976Y116855D01*
X537000Y117049D01*
X530026D01*
X529819Y117319D01*
X528993Y117953D01*
X528032Y118351D01*
X527000Y118487D01*
X525968Y118351D01*
X525007Y117953D01*
X524181Y117319D01*
X523547Y116493D01*
X523476Y116321D01*
X522935D01*
X522591Y117151D01*
X521748Y118249D01*
X520651Y119091D01*
X519372Y119621D01*
X518750Y119702D01*
D02*
G37*
G36*
X526250Y102201D02*
X525499Y102102D01*
X524100Y101523D01*
X522899Y100601D01*
X521977Y99400D01*
X521459Y98148D01*
X520970Y98106D01*
X520931Y98116D01*
X520712Y98643D01*
X520031Y99531D01*
X519143Y100212D01*
X518110Y100641D01*
X517000Y100787D01*
X515891Y100641D01*
X514857Y100212D01*
X513969Y99531D01*
X513288Y98643D01*
X512859Y97610D01*
X512713Y96500D01*
X512859Y95390D01*
X513288Y94357D01*
X513969Y93469D01*
X514857Y92788D01*
X515891Y92359D01*
X517000Y92213D01*
X517602Y92293D01*
X521198Y88698D01*
X522024Y88145D01*
X523000Y87951D01*
X620843D01*
X621818Y88145D01*
X622645Y88698D01*
X624873Y90926D01*
X626000Y90777D01*
X627263Y90943D01*
X628440Y91431D01*
X629451Y92207D01*
X630227Y93217D01*
X630714Y94394D01*
X630880Y95657D01*
X630714Y96921D01*
X630227Y98098D01*
X629451Y99108D01*
X628440Y99884D01*
X627263Y100372D01*
X626000Y100538D01*
X624737Y100372D01*
X623560Y99884D01*
X622549Y99108D01*
X621773Y98098D01*
X621286Y96921D01*
X621120Y95657D01*
X621268Y94530D01*
X619787Y93049D01*
X532165D01*
X531944Y93497D01*
X532023Y93600D01*
X532602Y94999D01*
X532701Y95750D01*
X527000D01*
Y96500D01*
X526250D01*
Y102201D01*
D02*
G37*
G36*
X527750D02*
Y97250D01*
X532701D01*
X532602Y98001D01*
X532023Y99400D01*
X531101Y100601D01*
X529900Y101523D01*
X528501Y102102D01*
X527750Y102201D01*
D02*
G37*
G36*
X226250Y100449D02*
X225564Y100358D01*
X224226Y99804D01*
X223077Y98923D01*
X222196Y97774D01*
X221642Y96436D01*
X221496Y95328D01*
X220991D01*
X220897Y96044D01*
X220494Y97017D01*
X219853Y97853D01*
X219017Y98494D01*
X218044Y98897D01*
X217000Y99035D01*
X215956Y98897D01*
X214983Y98494D01*
X214147Y97853D01*
X213506Y97017D01*
X213103Y96044D01*
X212965Y95000D01*
X213103Y93956D01*
X213506Y92983D01*
X214147Y92147D01*
X214983Y91506D01*
X215956Y91103D01*
X217000Y90965D01*
X218044Y91103D01*
X219017Y91506D01*
X219853Y92147D01*
X220494Y92983D01*
X220897Y93956D01*
X220991Y94672D01*
X221496D01*
X221642Y93564D01*
X222196Y92226D01*
X223077Y91077D01*
X224226Y90196D01*
X225564Y89642D01*
X226250Y89551D01*
Y95000D01*
Y100449D01*
D02*
G37*
G36*
X488000Y118288D02*
X487019Y118159D01*
X486106Y117781D01*
X485321Y117179D01*
X484719Y116394D01*
X484341Y115480D01*
X484212Y114500D01*
X484341Y113520D01*
X484719Y112606D01*
X485321Y111821D01*
X486106Y111219D01*
X487019Y110841D01*
X488000Y110712D01*
X488980Y110841D01*
X489543Y111074D01*
X502903Y97714D01*
X502859Y97610D01*
X502713Y96500D01*
X502859Y95390D01*
X503288Y94357D01*
X503969Y93469D01*
X504857Y92788D01*
X505891Y92359D01*
X507000Y92213D01*
X508110Y92359D01*
X509143Y92788D01*
X510031Y93469D01*
X510712Y94357D01*
X511141Y95390D01*
X511287Y96500D01*
X511141Y97610D01*
X510712Y98643D01*
X510031Y99531D01*
X509143Y100212D01*
X508110Y100641D01*
X507000Y100787D01*
X505891Y100641D01*
X505786Y100598D01*
X491774Y114610D01*
X491659Y115480D01*
X491281Y116394D01*
X490679Y117179D01*
X489894Y117781D01*
X488980Y118159D01*
X488000Y118288D01*
D02*
G37*
G36*
X361000Y99000D02*
X353000D01*
Y91000D01*
X361000D01*
Y99000D01*
D02*
G37*
G36*
X271000D02*
X263000D01*
Y91000D01*
X271000D01*
Y99000D01*
D02*
G37*
G36*
X237750Y100449D02*
Y95000D01*
Y89551D01*
X238436Y89642D01*
X239774Y90196D01*
X240923Y91077D01*
X241804Y92226D01*
X242358Y93564D01*
X242500Y94639D01*
X243000Y94607D01*
Y91000D01*
X251000D01*
Y99000D01*
X243000D01*
Y95393D01*
X242500Y95360D01*
X242358Y96436D01*
X241804Y97774D01*
X240923Y98923D01*
X239774Y99804D01*
X238436Y100358D01*
X237750Y100449D01*
D02*
G37*
G36*
X427000Y99035D02*
X425956Y98897D01*
X424983Y98494D01*
X424147Y97853D01*
X423506Y97017D01*
X423103Y96044D01*
X422965Y95000D01*
X423103Y93956D01*
X423506Y92983D01*
X424147Y92147D01*
X424983Y91506D01*
X425956Y91103D01*
X427000Y90965D01*
X428044Y91103D01*
X429017Y91506D01*
X429853Y92147D01*
X430494Y92983D01*
X430897Y93956D01*
X431035Y95000D01*
X430897Y96044D01*
X430494Y97017D01*
X429853Y97853D01*
X429017Y98494D01*
X428044Y98897D01*
X427000Y99035D01*
D02*
G37*
G36*
X417000D02*
X415956Y98897D01*
X414983Y98494D01*
X414147Y97853D01*
X413506Y97017D01*
X413103Y96044D01*
X412965Y95000D01*
X413103Y93956D01*
X413506Y92983D01*
X414147Y92147D01*
X414983Y91506D01*
X415956Y91103D01*
X417000Y90965D01*
X418044Y91103D01*
X419017Y91506D01*
X419853Y92147D01*
X420494Y92983D01*
X420897Y93956D01*
X421034Y95000D01*
X420897Y96044D01*
X420494Y97017D01*
X419853Y97853D01*
X419017Y98494D01*
X418044Y98897D01*
X417000Y99035D01*
D02*
G37*
G36*
X407000D02*
X405956Y98897D01*
X404983Y98494D01*
X404147Y97853D01*
X403506Y97017D01*
X403103Y96044D01*
X402965Y95000D01*
X403103Y93956D01*
X403506Y92983D01*
X404147Y92147D01*
X404983Y91506D01*
X405956Y91103D01*
X407000Y90965D01*
X408044Y91103D01*
X409017Y91506D01*
X409853Y92147D01*
X410494Y92983D01*
X410897Y93956D01*
X411034Y95000D01*
X410897Y96044D01*
X410494Y97017D01*
X409853Y97853D01*
X409017Y98494D01*
X408044Y98897D01*
X407000Y99035D01*
D02*
G37*
G36*
X397000D02*
X395956Y98897D01*
X394983Y98494D01*
X394147Y97853D01*
X393506Y97017D01*
X393103Y96044D01*
X392966Y95000D01*
X393103Y93956D01*
X393506Y92983D01*
X394147Y92147D01*
X394983Y91506D01*
X395956Y91103D01*
X397000Y90965D01*
X398044Y91103D01*
X399017Y91506D01*
X399853Y92147D01*
X400494Y92983D01*
X400897Y93956D01*
X401034Y95000D01*
X400897Y96044D01*
X400494Y97017D01*
X399853Y97853D01*
X399017Y98494D01*
X398044Y98897D01*
X397000Y99035D01*
D02*
G37*
G36*
X387000D02*
X385956Y98897D01*
X384983Y98494D01*
X384147Y97853D01*
X383506Y97017D01*
X383103Y96044D01*
X382965Y95000D01*
X383103Y93956D01*
X383506Y92983D01*
X384147Y92147D01*
X384983Y91506D01*
X385956Y91103D01*
X387000Y90965D01*
X388044Y91103D01*
X389017Y91506D01*
X389853Y92147D01*
X390494Y92983D01*
X390897Y93956D01*
X391035Y95000D01*
X390897Y96044D01*
X390494Y97017D01*
X389853Y97853D01*
X389017Y98494D01*
X388044Y98897D01*
X387000Y99035D01*
D02*
G37*
G36*
X377000D02*
X375956Y98897D01*
X374983Y98494D01*
X374147Y97853D01*
X373506Y97017D01*
X373103Y96044D01*
X372966Y95000D01*
X373103Y93956D01*
X373506Y92983D01*
X374147Y92147D01*
X374983Y91506D01*
X375956Y91103D01*
X377000Y90965D01*
X378044Y91103D01*
X379017Y91506D01*
X379853Y92147D01*
X380494Y92983D01*
X380897Y93956D01*
X381034Y95000D01*
X380897Y96044D01*
X380494Y97017D01*
X379853Y97853D01*
X379017Y98494D01*
X378044Y98897D01*
X377000Y99035D01*
D02*
G37*
G36*
X367000D02*
X365956Y98897D01*
X364983Y98494D01*
X364147Y97853D01*
X363506Y97017D01*
X363103Y96044D01*
X362965Y95000D01*
X363103Y93956D01*
X363506Y92983D01*
X364147Y92147D01*
X364983Y91506D01*
X365956Y91103D01*
X367000Y90965D01*
X368044Y91103D01*
X369017Y91506D01*
X369853Y92147D01*
X370494Y92983D01*
X370897Y93956D01*
X371035Y95000D01*
X370897Y96044D01*
X370494Y97017D01*
X369853Y97853D01*
X369017Y98494D01*
X368044Y98897D01*
X367000Y99035D01*
D02*
G37*
G36*
X337000D02*
X335956Y98897D01*
X334983Y98494D01*
X334147Y97853D01*
X333506Y97017D01*
X333103Y96044D01*
X332965Y95000D01*
X333103Y93956D01*
X333506Y92983D01*
X334147Y92147D01*
X334983Y91506D01*
X335956Y91103D01*
X337000Y90965D01*
X338044Y91103D01*
X339017Y91506D01*
X339853Y92147D01*
X340494Y92983D01*
X340897Y93956D01*
X341035Y95000D01*
X340897Y96044D01*
X340494Y97017D01*
X339853Y97853D01*
X339017Y98494D01*
X338044Y98897D01*
X337000Y99035D01*
D02*
G37*
G36*
X327000D02*
X325956Y98897D01*
X324983Y98494D01*
X324147Y97853D01*
X323506Y97017D01*
X323103Y96044D01*
X322966Y95000D01*
X323103Y93956D01*
X323506Y92983D01*
X324147Y92147D01*
X324983Y91506D01*
X325956Y91103D01*
X327000Y90965D01*
X328044Y91103D01*
X329017Y91506D01*
X329853Y92147D01*
X330494Y92983D01*
X330897Y93956D01*
X331034Y95000D01*
X330897Y96044D01*
X330494Y97017D01*
X329853Y97853D01*
X329017Y98494D01*
X328044Y98897D01*
X327000Y99035D01*
D02*
G37*
G36*
X317000D02*
X315956Y98897D01*
X314983Y98494D01*
X314147Y97853D01*
X313506Y97017D01*
X313103Y96044D01*
X312965Y95000D01*
X313103Y93956D01*
X313506Y92983D01*
X314147Y92147D01*
X314983Y91506D01*
X315956Y91103D01*
X317000Y90965D01*
X318044Y91103D01*
X319017Y91506D01*
X319853Y92147D01*
X320494Y92983D01*
X320897Y93956D01*
X321035Y95000D01*
X320897Y96044D01*
X320494Y97017D01*
X319853Y97853D01*
X319017Y98494D01*
X318044Y98897D01*
X317000Y99035D01*
D02*
G37*
G36*
X307000D02*
X305956Y98897D01*
X304983Y98494D01*
X304147Y97853D01*
X303506Y97017D01*
X303103Y96044D01*
X302965Y95000D01*
X303103Y93956D01*
X303506Y92983D01*
X304147Y92147D01*
X304983Y91506D01*
X305956Y91103D01*
X307000Y90965D01*
X308044Y91103D01*
X309017Y91506D01*
X309853Y92147D01*
X310494Y92983D01*
X310897Y93956D01*
X311034Y95000D01*
X310897Y96044D01*
X310494Y97017D01*
X309853Y97853D01*
X309017Y98494D01*
X308044Y98897D01*
X307000Y99035D01*
D02*
G37*
G36*
X297000D02*
X295956Y98897D01*
X294983Y98494D01*
X294147Y97853D01*
X293506Y97017D01*
X293103Y96044D01*
X292966Y95000D01*
X293103Y93956D01*
X293506Y92983D01*
X294147Y92147D01*
X294983Y91506D01*
X295956Y91103D01*
X297000Y90965D01*
X298044Y91103D01*
X299017Y91506D01*
X299853Y92147D01*
X300494Y92983D01*
X300897Y93956D01*
X301034Y95000D01*
X300897Y96044D01*
X300494Y97017D01*
X299853Y97853D01*
X299017Y98494D01*
X298044Y98897D01*
X297000Y99035D01*
D02*
G37*
G36*
X287000D02*
X285956Y98897D01*
X284983Y98494D01*
X284147Y97853D01*
X283506Y97017D01*
X283103Y96044D01*
X282965Y95000D01*
X283103Y93956D01*
X283506Y92983D01*
X284147Y92147D01*
X284983Y91506D01*
X285956Y91103D01*
X287000Y90965D01*
X288044Y91103D01*
X289017Y91506D01*
X289853Y92147D01*
X290494Y92983D01*
X290897Y93956D01*
X291035Y95000D01*
X290897Y96044D01*
X290494Y97017D01*
X289853Y97853D01*
X289017Y98494D01*
X288044Y98897D01*
X287000Y99035D01*
D02*
G37*
G36*
X277000D02*
X275956Y98897D01*
X274983Y98494D01*
X274147Y97853D01*
X273506Y97017D01*
X273103Y96044D01*
X272966Y95000D01*
X273103Y93956D01*
X273506Y92983D01*
X274147Y92147D01*
X274983Y91506D01*
X275956Y91103D01*
X277000Y90965D01*
X278044Y91103D01*
X279017Y91506D01*
X279853Y92147D01*
X280494Y92983D01*
X280897Y93956D01*
X281034Y95000D01*
X280897Y96044D01*
X280494Y97017D01*
X279853Y97853D01*
X279017Y98494D01*
X278044Y98897D01*
X277000Y99035D01*
D02*
G37*
G36*
X207000D02*
X205956Y98897D01*
X204983Y98494D01*
X204147Y97853D01*
X203506Y97017D01*
X203103Y96044D01*
X202965Y95000D01*
X203103Y93956D01*
X203506Y92983D01*
X204147Y92147D01*
X204983Y91506D01*
X205956Y91103D01*
X207000Y90965D01*
X208044Y91103D01*
X209017Y91506D01*
X209853Y92147D01*
X210494Y92983D01*
X210897Y93956D01*
X211034Y95000D01*
X210897Y96044D01*
X210494Y97017D01*
X209853Y97853D01*
X209017Y98494D01*
X208044Y98897D01*
X207000Y99035D01*
D02*
G37*
G36*
X197000D02*
X195956Y98897D01*
X194983Y98494D01*
X194147Y97853D01*
X193506Y97017D01*
X193103Y96044D01*
X192965Y95000D01*
X193103Y93956D01*
X193506Y92983D01*
X194147Y92147D01*
X194983Y91506D01*
X195956Y91103D01*
X197000Y90965D01*
X198044Y91103D01*
X199017Y91506D01*
X199853Y92147D01*
X200494Y92983D01*
X200897Y93956D01*
X201034Y95000D01*
X200897Y96044D01*
X200494Y97017D01*
X199853Y97853D01*
X199017Y98494D01*
X198044Y98897D01*
X197000Y99035D01*
D02*
G37*
G36*
X227750Y100449D02*
Y95000D01*
Y89551D01*
X228436Y89642D01*
X229774Y90196D01*
X230923Y91077D01*
X231707Y92100D01*
X231873Y92142D01*
X232127D01*
X232293Y92100D01*
X233077Y91077D01*
X234226Y90196D01*
X235564Y89642D01*
X236250Y89551D01*
Y95000D01*
Y100449D01*
X235564Y100358D01*
X234226Y99804D01*
X233077Y98923D01*
X232293Y97900D01*
X232127Y97857D01*
X231873D01*
X231707Y97900D01*
X230923Y98923D01*
X229774Y99804D01*
X228436Y100358D01*
X227750Y100449D01*
D02*
G37*
G36*
X447000Y102334D02*
X445569Y102194D01*
X444193Y101776D01*
X442925Y101098D01*
X441814Y100186D01*
X440902Y99075D01*
X440224Y97807D01*
X439806Y96431D01*
X439666Y95000D01*
X439806Y93569D01*
X440224Y92193D01*
X440902Y90925D01*
X441814Y89814D01*
X442925Y88902D01*
X444193Y88224D01*
X445569Y87806D01*
X447000Y87665D01*
X448431Y87806D01*
X449807Y88224D01*
X451075Y88902D01*
X452186Y89814D01*
X453098Y90925D01*
X453776Y92193D01*
X454194Y93569D01*
X454334Y95000D01*
X454194Y96431D01*
X453776Y97807D01*
X453098Y99075D01*
X452186Y100186D01*
X451075Y101098D01*
X449807Y101776D01*
X448431Y102194D01*
X447000Y102334D01*
D02*
G37*
G36*
X122000D02*
X120569Y102194D01*
X119193Y101776D01*
X117925Y101098D01*
X116814Y100186D01*
X115902Y99075D01*
X115224Y97807D01*
X114806Y96431D01*
X114665Y95000D01*
X114806Y93569D01*
X115224Y92193D01*
X115902Y90925D01*
X116814Y89814D01*
X117925Y88902D01*
X119193Y88224D01*
X120569Y87806D01*
X122000Y87665D01*
X123431Y87806D01*
X124807Y88224D01*
X126075Y88902D01*
X127186Y89814D01*
X128098Y90925D01*
X128776Y92193D01*
X129194Y93569D01*
X129334Y95000D01*
X129194Y96431D01*
X128776Y97807D01*
X128098Y99075D01*
X127186Y100186D01*
X126075Y101098D01*
X124807Y101776D01*
X123431Y102194D01*
X122000Y102334D01*
D02*
G37*
G36*
X88000Y94788D02*
X87019Y94659D01*
X86106Y94281D01*
X85321Y93679D01*
X84719Y92894D01*
X84341Y91980D01*
X84212Y91000D01*
X84341Y90020D01*
X84719Y89106D01*
X85321Y88321D01*
X86106Y87719D01*
X87019Y87341D01*
X88000Y87212D01*
X88981Y87341D01*
X89894Y87719D01*
X90679Y88321D01*
X91281Y89106D01*
X91659Y90020D01*
X91788Y91000D01*
X91659Y91980D01*
X91281Y92894D01*
X90679Y93679D01*
X89894Y94281D01*
X88981Y94659D01*
X88000Y94788D01*
D02*
G37*
G36*
X32839Y95996D02*
X23162D01*
Y86319D01*
X32839D01*
Y88961D01*
X54830D01*
X55321Y88321D01*
X56106Y87719D01*
X57020Y87341D01*
X58000Y87212D01*
X58981Y87341D01*
X59894Y87719D01*
X60679Y88321D01*
X61281Y89106D01*
X61659Y90020D01*
X61788Y91000D01*
X61659Y91980D01*
X61281Y92894D01*
X60679Y93679D01*
X59894Y94281D01*
X58981Y94659D01*
X58000Y94788D01*
X57020Y94659D01*
X56106Y94281D01*
X55321Y93679D01*
X54830Y93039D01*
X32839D01*
Y95996D01*
D02*
G37*
G36*
X630839Y80681D02*
X621161D01*
Y77549D01*
X600026D01*
X599819Y77819D01*
X598993Y78453D01*
X598032Y78851D01*
X597000Y78987D01*
X595968Y78851D01*
X595007Y78453D01*
X594181Y77819D01*
X593974Y77549D01*
X575901D01*
X575531Y78031D01*
X574643Y78712D01*
X573609Y79141D01*
X572500Y79287D01*
X571390Y79141D01*
X570357Y78712D01*
X569469Y78031D01*
X568788Y77143D01*
X568359Y76109D01*
X568213Y75000D01*
X568359Y73891D01*
X568788Y72857D01*
X569469Y71969D01*
X570357Y71288D01*
X571390Y70859D01*
X572500Y70713D01*
X573609Y70859D01*
X574643Y71288D01*
X575531Y71969D01*
X575901Y72451D01*
X593974D01*
X594181Y72181D01*
X595007Y71547D01*
X595968Y71149D01*
X597000Y71013D01*
X598032Y71149D01*
X598993Y71547D01*
X599819Y72181D01*
X600026Y72451D01*
X621161D01*
Y71004D01*
X630839D01*
Y80681D01*
D02*
G37*
G36*
X517250Y80203D02*
X516628Y80121D01*
X515349Y79591D01*
X514252Y78749D01*
X513409Y77651D01*
X512879Y76372D01*
X512797Y75750D01*
X517250D01*
Y80203D01*
D02*
G37*
G36*
X28750Y77638D02*
Y72093D01*
X34295D01*
X34247Y72585D01*
X33885Y73780D01*
X33296Y74881D01*
X32504Y75846D01*
X31539Y76638D01*
X30437Y77227D01*
X29243Y77589D01*
X28750Y77638D01*
D02*
G37*
G36*
X27250D02*
X26757Y77589D01*
X25563Y77227D01*
X24462Y76638D01*
X23496Y75846D01*
X22704Y74881D01*
X22116Y73780D01*
X21753Y72585D01*
X21705Y72093D01*
X27250D01*
Y77638D01*
D02*
G37*
G36*
X552500Y79287D02*
X551391Y79141D01*
X550357Y78712D01*
X549469Y78031D01*
X548788Y77143D01*
X548359Y76109D01*
X548213Y75000D01*
X548359Y73891D01*
X548788Y72857D01*
X549469Y71969D01*
X550357Y71288D01*
X551391Y70859D01*
X552500Y70713D01*
X553610Y70859D01*
X554643Y71288D01*
X555531Y71969D01*
X556212Y72857D01*
X556641Y73891D01*
X556787Y75000D01*
X556641Y76109D01*
X556212Y77143D01*
X555531Y78031D01*
X554643Y78712D01*
X553610Y79141D01*
X552500Y79287D01*
D02*
G37*
G36*
X517250Y74250D02*
X512797D01*
X512879Y73628D01*
X513409Y72349D01*
X514252Y71251D01*
X515349Y70409D01*
X516628Y69879D01*
X517250Y69797D01*
Y74250D01*
D02*
G37*
G36*
X34295Y70593D02*
X28750D01*
Y65047D01*
X29243Y65096D01*
X30437Y65458D01*
X31539Y66047D01*
X32504Y66839D01*
X33296Y67804D01*
X33885Y68905D01*
X34247Y70100D01*
X34295Y70593D01*
D02*
G37*
G36*
X27250D02*
X21705D01*
X21753Y70100D01*
X22116Y68905D01*
X22704Y67804D01*
X23496Y66839D01*
X24462Y66047D01*
X25563Y65458D01*
X26757Y65096D01*
X27250Y65047D01*
Y70593D01*
D02*
G37*
G36*
X518750Y80203D02*
Y75000D01*
Y69797D01*
X519372Y69879D01*
X520651Y70409D01*
X521748Y71251D01*
X522591Y72349D01*
X522935Y73179D01*
X523476D01*
X523547Y73007D01*
X524181Y72181D01*
X525007Y71547D01*
X525968Y71149D01*
X527000Y71013D01*
X528032Y71149D01*
X528993Y71547D01*
X529819Y72181D01*
X530026Y72451D01*
X535944D01*
X543198Y65198D01*
X544025Y64645D01*
X545000Y64451D01*
X557000D01*
X557975Y64645D01*
X558802Y65198D01*
X564302Y70698D01*
X564753Y71372D01*
X565531Y71969D01*
X566212Y72857D01*
X566641Y73891D01*
X566787Y75000D01*
X566641Y76109D01*
X566212Y77143D01*
X565531Y78031D01*
X564643Y78712D01*
X563610Y79141D01*
X562500Y79287D01*
X561390Y79141D01*
X560357Y78712D01*
X559469Y78031D01*
X558788Y77143D01*
X558359Y76109D01*
X558213Y75000D01*
X558359Y73891D01*
X558788Y72857D01*
X558989Y72594D01*
X555944Y69549D01*
X546056D01*
X538802Y76802D01*
X537976Y77355D01*
X537000Y77549D01*
X530026D01*
X529819Y77819D01*
X528993Y78453D01*
X528032Y78851D01*
X527000Y78987D01*
X525968Y78851D01*
X525007Y78453D01*
X524181Y77819D01*
X523547Y76993D01*
X523476Y76821D01*
X522935D01*
X522591Y77651D01*
X521748Y78749D01*
X520651Y79591D01*
X519372Y80121D01*
X518750Y80203D01*
D02*
G37*
G36*
X526250Y62701D02*
X525499Y62602D01*
X524100Y62023D01*
X522899Y61101D01*
X521977Y59900D01*
X521459Y58648D01*
X520970Y58606D01*
X520931Y58616D01*
X520712Y59143D01*
X520031Y60031D01*
X519143Y60712D01*
X518110Y61141D01*
X517000Y61287D01*
X515891Y61141D01*
X514857Y60712D01*
X513969Y60031D01*
X513288Y59143D01*
X512859Y58109D01*
X512713Y57000D01*
X512859Y55891D01*
X513288Y54857D01*
X513969Y53969D01*
X514857Y53288D01*
X515891Y52859D01*
X517000Y52713D01*
X517602Y52793D01*
X521198Y49198D01*
X522024Y48645D01*
X523000Y48451D01*
X620843D01*
X621818Y48645D01*
X622645Y49198D01*
X624873Y51425D01*
X626000Y51277D01*
X627263Y51443D01*
X628440Y51931D01*
X629451Y52707D01*
X630227Y53717D01*
X630714Y54894D01*
X630880Y56157D01*
X630714Y57421D01*
X630227Y58598D01*
X629451Y59608D01*
X628440Y60384D01*
X627263Y60871D01*
X626000Y61038D01*
X624737Y60871D01*
X623560Y60384D01*
X622549Y59608D01*
X621773Y58598D01*
X621286Y57421D01*
X621120Y56157D01*
X621268Y55030D01*
X619787Y53549D01*
X532165D01*
X531944Y53997D01*
X532023Y54100D01*
X532602Y55499D01*
X532701Y56250D01*
X527000D01*
Y57000D01*
X526250D01*
Y62701D01*
D02*
G37*
G36*
X527750D02*
Y57750D01*
X532701D01*
X532602Y58501D01*
X532023Y59900D01*
X531101Y61101D01*
X529900Y62023D01*
X528501Y62602D01*
X527750Y62701D01*
D02*
G37*
G36*
X488000Y78788D02*
X487019Y78659D01*
X486106Y78281D01*
X485321Y77679D01*
X484719Y76894D01*
X484341Y75981D01*
X484212Y75000D01*
X484341Y74019D01*
X484719Y73106D01*
X485321Y72321D01*
X486106Y71719D01*
X487019Y71341D01*
X488000Y71212D01*
X488980Y71341D01*
X489543Y71574D01*
X502903Y58214D01*
X502859Y58109D01*
X502713Y57000D01*
X502859Y55891D01*
X503288Y54857D01*
X503969Y53969D01*
X504857Y53288D01*
X505891Y52859D01*
X507000Y52713D01*
X508110Y52859D01*
X509143Y53288D01*
X510031Y53969D01*
X510712Y54857D01*
X511141Y55891D01*
X511287Y57000D01*
X511141Y58109D01*
X510712Y59143D01*
X510031Y60031D01*
X509143Y60712D01*
X508110Y61141D01*
X507000Y61287D01*
X505891Y61141D01*
X505786Y61098D01*
X491774Y75110D01*
X491659Y75981D01*
X491281Y76894D01*
X490679Y77679D01*
X489894Y78281D01*
X488980Y78659D01*
X488000Y78788D01*
D02*
G37*
G36*
X88000Y55288D02*
X87019Y55159D01*
X86106Y54781D01*
X85321Y54179D01*
X84719Y53394D01*
X84341Y52481D01*
X84212Y51500D01*
X84341Y50520D01*
X84719Y49606D01*
X85321Y48821D01*
X86106Y48219D01*
X87019Y47841D01*
X88000Y47712D01*
X88981Y47841D01*
X89894Y48219D01*
X90679Y48821D01*
X91281Y49606D01*
X91659Y50520D01*
X91788Y51500D01*
X91659Y52481D01*
X91281Y53394D01*
X90679Y54179D01*
X89894Y54781D01*
X88981Y55159D01*
X88000Y55288D01*
D02*
G37*
G36*
X32839Y56496D02*
X23162D01*
Y46819D01*
X32839D01*
Y49461D01*
X54830D01*
X55321Y48821D01*
X56106Y48219D01*
X57020Y47841D01*
X58000Y47712D01*
X58981Y47841D01*
X59894Y48219D01*
X60679Y48821D01*
X61281Y49606D01*
X61659Y50520D01*
X61788Y51500D01*
X61659Y52481D01*
X61281Y53394D01*
X60679Y54179D01*
X59894Y54781D01*
X58981Y55159D01*
X58000Y55288D01*
X57020Y55159D01*
X56106Y54781D01*
X55321Y54179D01*
X54830Y53539D01*
X32839D01*
Y56496D01*
D02*
G37*
G36*
X448000Y51782D02*
X447021Y51653D01*
X446723Y51530D01*
X442000D01*
X441086Y51410D01*
X440235Y51057D01*
X439504Y50496D01*
X426883Y37875D01*
X426322Y37144D01*
X425969Y36292D01*
X425849Y35379D01*
Y30681D01*
X424540D01*
Y21004D01*
X434217D01*
Y30681D01*
X432909D01*
Y33917D01*
X443462Y44470D01*
X446723D01*
X447021Y44346D01*
X448000Y44218D01*
X448979Y44346D01*
X449891Y44724D01*
X450674Y45325D01*
X451276Y46109D01*
X451653Y47021D01*
X451782Y48000D01*
X451653Y48979D01*
X451276Y49891D01*
X450674Y50674D01*
X449891Y51276D01*
X448979Y51653D01*
X448000Y51782D01*
D02*
G37*
G36*
X630839Y41681D02*
X621161D01*
Y38549D01*
X600026D01*
X599819Y38819D01*
X598993Y39453D01*
X598032Y39851D01*
X597000Y39987D01*
X595968Y39851D01*
X595007Y39453D01*
X594181Y38819D01*
X593974Y38549D01*
X575901D01*
X575531Y39031D01*
X574643Y39712D01*
X573609Y40141D01*
X572500Y40287D01*
X571390Y40141D01*
X570357Y39712D01*
X569469Y39031D01*
X568788Y38143D01*
X568359Y37110D01*
X568213Y36000D01*
X568359Y34890D01*
X568788Y33857D01*
X569469Y32969D01*
X570357Y32288D01*
X571390Y31859D01*
X572500Y31713D01*
X573609Y31859D01*
X574643Y32288D01*
X575531Y32969D01*
X575901Y33451D01*
X593974D01*
X594181Y33181D01*
X595007Y32547D01*
X595968Y32149D01*
X597000Y32013D01*
X598032Y32149D01*
X598993Y32547D01*
X599819Y33181D01*
X600026Y33451D01*
X621161D01*
Y32004D01*
X630839D01*
Y41681D01*
D02*
G37*
G36*
X517250Y41203D02*
X516628Y41121D01*
X515349Y40591D01*
X514252Y39749D01*
X513409Y38651D01*
X512879Y37372D01*
X512797Y36750D01*
X517250D01*
Y41203D01*
D02*
G37*
G36*
X28750Y38138D02*
Y32593D01*
X34295D01*
X34247Y33085D01*
X33885Y34280D01*
X33296Y35381D01*
X32504Y36346D01*
X31539Y37138D01*
X30437Y37727D01*
X29243Y38089D01*
X28750Y38138D01*
D02*
G37*
G36*
X27250D02*
X26757Y38089D01*
X25563Y37727D01*
X24462Y37138D01*
X23496Y36346D01*
X22704Y35381D01*
X22116Y34280D01*
X21753Y33085D01*
X21705Y32593D01*
X27250D01*
Y38138D01*
D02*
G37*
G36*
X552500Y40287D02*
X551391Y40141D01*
X550357Y39712D01*
X549469Y39031D01*
X548788Y38143D01*
X548359Y37110D01*
X548213Y36000D01*
X548359Y34890D01*
X548788Y33857D01*
X549469Y32969D01*
X550357Y32288D01*
X551391Y31859D01*
X552500Y31713D01*
X553610Y31859D01*
X554643Y32288D01*
X555531Y32969D01*
X556212Y33857D01*
X556641Y34890D01*
X556787Y36000D01*
X556641Y37110D01*
X556212Y38143D01*
X555531Y39031D01*
X554643Y39712D01*
X553610Y40141D01*
X552500Y40287D01*
D02*
G37*
G36*
X517250Y35250D02*
X512797D01*
X512879Y34628D01*
X513409Y33349D01*
X514252Y32251D01*
X515349Y31409D01*
X516628Y30879D01*
X517250Y30797D01*
Y35250D01*
D02*
G37*
G36*
X410444Y32138D02*
Y26593D01*
X415989D01*
X415941Y27085D01*
X415578Y28280D01*
X414990Y29381D01*
X414197Y30346D01*
X413232Y31138D01*
X412131Y31727D01*
X410936Y32089D01*
X410444Y32138D01*
D02*
G37*
G36*
X191908D02*
Y26593D01*
X197453D01*
X197404Y27085D01*
X197042Y28280D01*
X196453Y29381D01*
X195661Y30346D01*
X194696Y31138D01*
X193595Y31727D01*
X192400Y32089D01*
X191908Y32138D01*
D02*
G37*
G36*
X190408Y32138D02*
X189915Y32089D01*
X188720Y31727D01*
X187619Y31138D01*
X186654Y30346D01*
X185862Y29381D01*
X185273Y28280D01*
X184911Y27085D01*
X184862Y26593D01*
X190408D01*
Y32138D01*
D02*
G37*
G36*
X408944D02*
X408451Y32089D01*
X407256Y31727D01*
X406155Y31138D01*
X405190Y30346D01*
X404398Y29381D01*
X403809Y28280D01*
X403447Y27085D01*
X403398Y26593D01*
X408944D01*
Y32138D01*
D02*
G37*
G36*
X34295Y31093D02*
X28750D01*
Y25547D01*
X29243Y25596D01*
X30437Y25958D01*
X31539Y26547D01*
X32504Y27339D01*
X33296Y28304D01*
X33885Y29405D01*
X34247Y30600D01*
X34295Y31093D01*
D02*
G37*
G36*
X27250D02*
X21705D01*
X21753Y30600D01*
X22116Y29405D01*
X22704Y28304D01*
X23496Y27339D01*
X24462Y26547D01*
X25563Y25958D01*
X26757Y25596D01*
X27250Y25547D01*
Y31093D01*
D02*
G37*
G36*
X518750Y41203D02*
Y36000D01*
Y30797D01*
X519372Y30879D01*
X520651Y31409D01*
X521748Y32251D01*
X522591Y33349D01*
X522935Y34179D01*
X523476D01*
X523547Y34007D01*
X524181Y33181D01*
X525007Y32547D01*
X525968Y32149D01*
X527000Y32013D01*
X528032Y32149D01*
X528993Y32547D01*
X529819Y33181D01*
X530026Y33451D01*
X535944D01*
X543198Y26198D01*
X544025Y25645D01*
X545000Y25451D01*
X557000D01*
X557975Y25645D01*
X558802Y26198D01*
X564302Y31698D01*
X564753Y32372D01*
X565531Y32969D01*
X566212Y33857D01*
X566641Y34890D01*
X566787Y36000D01*
X566641Y37110D01*
X566212Y38143D01*
X565531Y39031D01*
X564643Y39712D01*
X563610Y40141D01*
X562500Y40287D01*
X561390Y40141D01*
X560357Y39712D01*
X559469Y39031D01*
X558788Y38143D01*
X558359Y37110D01*
X558213Y36000D01*
X558359Y34890D01*
X558788Y33857D01*
X558989Y33594D01*
X555944Y30549D01*
X546056D01*
X538802Y37802D01*
X537976Y38355D01*
X537000Y38549D01*
X530026D01*
X529819Y38819D01*
X528993Y39453D01*
X528032Y39851D01*
X527000Y39987D01*
X525968Y39851D01*
X525007Y39453D01*
X524181Y38819D01*
X523547Y37993D01*
X523476Y37821D01*
X522935D01*
X522591Y38651D01*
X521748Y39749D01*
X520651Y40591D01*
X519372Y41121D01*
X518750Y41203D01*
D02*
G37*
G36*
X215681Y30681D02*
X206004D01*
Y21004D01*
X215681D01*
Y23294D01*
X238358D01*
Y21201D01*
X247642D01*
Y30484D01*
X238358D01*
Y28392D01*
X215681D01*
Y30681D01*
D02*
G37*
G36*
X263000Y30524D02*
X261788Y30365D01*
X260659Y29897D01*
X259689Y29153D01*
X258945Y28183D01*
X258478Y27054D01*
X258318Y25843D01*
X258478Y24631D01*
X258945Y23502D01*
X259689Y22532D01*
X260659Y21788D01*
X261788Y21320D01*
X263000Y21161D01*
X264212Y21320D01*
X265341Y21788D01*
X266311Y22532D01*
X267055Y23502D01*
X267522Y24631D01*
X267682Y25843D01*
X267522Y27054D01*
X267055Y28183D01*
X266311Y29153D01*
X265341Y29897D01*
X264212Y30365D01*
X263000Y30524D01*
D02*
G37*
G36*
X333399Y63181D02*
X332420Y63052D01*
X331508Y62675D01*
X330725Y62074D01*
X330123Y61290D01*
X329746Y60378D01*
X329617Y59399D01*
X329746Y58420D01*
X330123Y57508D01*
X330725Y56725D01*
X331508Y56123D01*
X331615Y56079D01*
Y30681D01*
X328560D01*
Y21004D01*
X338238D01*
Y30681D01*
X335183D01*
Y56079D01*
X335290Y56123D01*
X336073Y56725D01*
X336675Y57508D01*
X337052Y58420D01*
X337181Y59399D01*
X337052Y60378D01*
X336675Y61290D01*
X336073Y62074D01*
X335290Y62675D01*
X334378Y63052D01*
X333399Y63181D01*
D02*
G37*
G36*
X294000Y63782D02*
X293021Y63653D01*
X292109Y63276D01*
X291325Y62674D01*
X290724Y61891D01*
X290347Y60979D01*
X290218Y60000D01*
X290347Y59021D01*
X290724Y58109D01*
X291325Y57326D01*
X292109Y56724D01*
X292216Y56680D01*
Y30681D01*
X289161D01*
Y21004D01*
X298839D01*
Y30681D01*
X295784D01*
Y56680D01*
X295891Y56724D01*
X296674Y57326D01*
X297276Y58109D01*
X297654Y59021D01*
X297782Y60000D01*
X297654Y60979D01*
X297276Y61891D01*
X296674Y62674D01*
X295891Y63276D01*
X294979Y63653D01*
X294000Y63782D01*
D02*
G37*
G36*
X372769Y62551D02*
X371790Y62423D01*
X370878Y62045D01*
X370094Y61444D01*
X369493Y60660D01*
X369115Y59748D01*
X368987Y58769D01*
X369115Y57790D01*
X369493Y56878D01*
X370094Y56094D01*
X370878Y55493D01*
X370985Y55449D01*
Y30341D01*
X370329Y30069D01*
X369318Y29294D01*
X368543Y28283D01*
X368055Y27106D01*
X367889Y25843D01*
X368055Y24579D01*
X368543Y23402D01*
X369318Y22392D01*
X370329Y21616D01*
X371506Y21128D01*
X372769Y20962D01*
X374032Y21128D01*
X375209Y21616D01*
X376220Y22392D01*
X376995Y23402D01*
X377483Y24579D01*
X377649Y25843D01*
X377483Y27106D01*
X376995Y28283D01*
X376220Y29294D01*
X375209Y30069D01*
X374553Y30341D01*
Y55449D01*
X374660Y55493D01*
X375444Y56094D01*
X376045Y56878D01*
X376423Y57790D01*
X376551Y58769D01*
X376423Y59748D01*
X376045Y60660D01*
X375444Y61444D01*
X374660Y62045D01*
X373748Y62423D01*
X372769Y62551D01*
D02*
G37*
G36*
X353084Y62866D02*
X352105Y62738D01*
X351193Y62360D01*
X350410Y61759D01*
X349808Y60975D01*
X349430Y60063D01*
X349302Y59084D01*
X349430Y58105D01*
X349808Y57193D01*
X350410Y56410D01*
X351193Y55808D01*
X351300Y55764D01*
Y30341D01*
X350644Y30069D01*
X349633Y29294D01*
X348857Y28283D01*
X348370Y27106D01*
X348204Y25843D01*
X348370Y24579D01*
X348857Y23402D01*
X349633Y22392D01*
X350644Y21616D01*
X351821Y21128D01*
X353084Y20962D01*
X354347Y21128D01*
X355524Y21616D01*
X356535Y22392D01*
X357311Y23402D01*
X357798Y24579D01*
X357964Y25843D01*
X357798Y27106D01*
X357311Y28283D01*
X356535Y29294D01*
X355524Y30069D01*
X354868Y30341D01*
Y55764D01*
X354975Y55808D01*
X355759Y56410D01*
X356360Y57193D01*
X356737Y58105D01*
X356866Y59084D01*
X356737Y60063D01*
X356360Y60975D01*
X355759Y61759D01*
X354975Y62360D01*
X354063Y62738D01*
X353084Y62866D01*
D02*
G37*
G36*
X313685Y63467D02*
X312706Y63339D01*
X311794Y62961D01*
X311011Y62359D01*
X310409Y61576D01*
X310032Y60664D01*
X309903Y59685D01*
X310032Y58706D01*
X310409Y57794D01*
X311011Y57011D01*
X311794Y56409D01*
X311901Y56365D01*
Y30341D01*
X311245Y30069D01*
X310234Y29294D01*
X309458Y28283D01*
X308971Y27106D01*
X308805Y25843D01*
X308971Y24579D01*
X309458Y23402D01*
X310234Y22392D01*
X311245Y21616D01*
X312422Y21128D01*
X313685Y20962D01*
X314948Y21128D01*
X316125Y21616D01*
X317136Y22392D01*
X317912Y23402D01*
X318399Y24579D01*
X318565Y25843D01*
X318399Y27106D01*
X317912Y28283D01*
X317136Y29294D01*
X316125Y30069D01*
X315469Y30341D01*
Y56365D01*
X315576Y56409D01*
X316359Y57011D01*
X316961Y57794D01*
X317338Y58706D01*
X317467Y59685D01*
X317338Y60664D01*
X316961Y61576D01*
X316359Y62359D01*
X315576Y62961D01*
X314664Y63339D01*
X313685Y63467D01*
D02*
G37*
G36*
X526250Y23701D02*
X525499Y23602D01*
X524100Y23023D01*
X522899Y22101D01*
X521977Y20900D01*
X521459Y19648D01*
X520970Y19606D01*
X520931Y19616D01*
X520712Y20143D01*
X520031Y21031D01*
X519143Y21712D01*
X518110Y22141D01*
X517000Y22287D01*
X515891Y22141D01*
X514857Y21712D01*
X513969Y21031D01*
X513288Y20143D01*
X512859Y19109D01*
X512713Y18000D01*
X512859Y16891D01*
X513288Y15857D01*
X513969Y14969D01*
X514857Y14288D01*
X515891Y13859D01*
X517000Y13713D01*
X517602Y13793D01*
X521198Y10198D01*
X522024Y9645D01*
X523000Y9451D01*
X620843D01*
X621818Y9645D01*
X622645Y10198D01*
X624873Y12426D01*
X626000Y12277D01*
X627263Y12443D01*
X628440Y12931D01*
X629451Y13707D01*
X630227Y14717D01*
X630714Y15894D01*
X630880Y17157D01*
X630714Y18421D01*
X630227Y19598D01*
X629451Y20608D01*
X628440Y21384D01*
X627263Y21871D01*
X626000Y22038D01*
X624737Y21871D01*
X623560Y21384D01*
X622549Y20608D01*
X621773Y19598D01*
X621286Y18421D01*
X621120Y17157D01*
X621268Y16030D01*
X619787Y14549D01*
X532165D01*
X531944Y14997D01*
X532023Y15100D01*
X532602Y16499D01*
X532701Y17250D01*
X527000D01*
Y18000D01*
X526250D01*
Y23701D01*
D02*
G37*
G36*
X415989Y25093D02*
X410444D01*
Y19547D01*
X410936Y19596D01*
X412131Y19958D01*
X413232Y20547D01*
X414197Y21339D01*
X414990Y22304D01*
X415578Y23405D01*
X415941Y24600D01*
X415989Y25093D01*
D02*
G37*
G36*
X197453D02*
X191908D01*
Y19547D01*
X192400Y19596D01*
X193595Y19958D01*
X194696Y20547D01*
X195661Y21339D01*
X196453Y22304D01*
X197042Y23405D01*
X197404Y24600D01*
X197453Y25093D01*
D02*
G37*
G36*
X190408D02*
X184862D01*
X184911Y24600D01*
X185273Y23405D01*
X185862Y22304D01*
X186654Y21339D01*
X187619Y20547D01*
X188720Y19958D01*
X189915Y19596D01*
X190408Y19547D01*
Y25093D01*
D02*
G37*
G36*
X408944D02*
X403398D01*
X403447Y24600D01*
X403809Y23405D01*
X404398Y22304D01*
X405190Y21339D01*
X406155Y20547D01*
X407256Y19958D01*
X408451Y19596D01*
X408944Y19547D01*
Y25093D01*
D02*
G37*
G36*
X527750Y23701D02*
Y18750D01*
X532701D01*
X532602Y19501D01*
X532023Y20900D01*
X531101Y22101D01*
X529900Y23023D01*
X528501Y23602D01*
X527750Y23701D01*
D02*
G37*
G36*
X488000Y39788D02*
X487019Y39659D01*
X486106Y39281D01*
X485321Y38679D01*
X484719Y37894D01*
X484341Y36981D01*
X484212Y36000D01*
X484341Y35019D01*
X484719Y34106D01*
X485321Y33321D01*
X486106Y32719D01*
X487019Y32341D01*
X488000Y32212D01*
X488980Y32341D01*
X489543Y32574D01*
X502903Y19214D01*
X502859Y19109D01*
X502713Y18000D01*
X502859Y16891D01*
X503288Y15857D01*
X503969Y14969D01*
X504857Y14288D01*
X505891Y13859D01*
X507000Y13713D01*
X508110Y13859D01*
X509143Y14288D01*
X510031Y14969D01*
X510712Y15857D01*
X511141Y16891D01*
X511287Y18000D01*
X511141Y19109D01*
X510712Y20143D01*
X510031Y21031D01*
X509143Y21712D01*
X508110Y22141D01*
X507000Y22287D01*
X505891Y22141D01*
X505786Y22097D01*
X491774Y36110D01*
X491659Y36981D01*
X491281Y37894D01*
X490679Y38679D01*
X489894Y39281D01*
X488980Y39659D01*
X488000Y39788D01*
D02*
G37*
G36*
X88000Y15788D02*
X87019Y15659D01*
X86106Y15281D01*
X85321Y14679D01*
X84719Y13894D01*
X84341Y12980D01*
X84212Y12000D01*
X84341Y11020D01*
X84719Y10106D01*
X85321Y9321D01*
X86106Y8719D01*
X87019Y8341D01*
X88000Y8212D01*
X88981Y8341D01*
X89894Y8719D01*
X90679Y9321D01*
X91281Y10106D01*
X91659Y11020D01*
X91788Y12000D01*
X91659Y12980D01*
X91281Y13894D01*
X90679Y14679D01*
X89894Y15281D01*
X88981Y15659D01*
X88000Y15788D01*
D02*
G37*
G36*
X32839Y16996D02*
X23162D01*
Y7319D01*
X32839D01*
Y9961D01*
X54830D01*
X55321Y9321D01*
X56106Y8719D01*
X57020Y8341D01*
X58000Y8212D01*
X58981Y8341D01*
X59894Y8719D01*
X60679Y9321D01*
X61281Y10106D01*
X61659Y11020D01*
X61788Y12000D01*
X61659Y12980D01*
X61281Y13894D01*
X60679Y14679D01*
X59894Y15281D01*
X58981Y15659D01*
X58000Y15788D01*
X57020Y15659D01*
X56106Y15281D01*
X55321Y14679D01*
X54830Y14039D01*
X32839D01*
Y16996D01*
D02*
G37*
G36*
X460000Y34988D02*
X457655Y34804D01*
X455368Y34255D01*
X453195Y33354D01*
X451190Y32126D01*
X449402Y30598D01*
X447874Y28810D01*
X446645Y26805D01*
X445746Y24632D01*
X445196Y22345D01*
X445012Y20000D01*
X445196Y17655D01*
X445746Y15368D01*
X446645Y13195D01*
X447874Y11190D01*
X449402Y9402D01*
X451190Y7874D01*
X453195Y6645D01*
X455368Y5745D01*
X457655Y5196D01*
X460000Y5012D01*
X462345Y5196D01*
X464632Y5745D01*
X466805Y6645D01*
X468810Y7874D01*
X470598Y9402D01*
X472126Y11190D01*
X473354Y13195D01*
X474255Y15368D01*
X474804Y17655D01*
X474988Y20000D01*
X474804Y22345D01*
X474255Y24632D01*
X473354Y26805D01*
X472126Y28810D01*
X470598Y30598D01*
X468810Y32126D01*
X466805Y33354D01*
X464632Y34255D01*
X462345Y34804D01*
X460000Y34988D01*
D02*
G37*
G36*
X110000D02*
X107655Y34804D01*
X105368Y34255D01*
X103196Y33354D01*
X101190Y32126D01*
X99402Y30598D01*
X97874Y28810D01*
X96645Y26805D01*
X95745Y24632D01*
X95196Y22345D01*
X95012Y20000D01*
X95196Y17655D01*
X95745Y15368D01*
X96645Y13195D01*
X97874Y11190D01*
X99402Y9402D01*
X101190Y7874D01*
X103196Y6645D01*
X105368Y5745D01*
X107655Y5196D01*
X110000Y5012D01*
X112345Y5196D01*
X114632Y5745D01*
X116805Y6645D01*
X118810Y7874D01*
X120598Y9402D01*
X122126Y11190D01*
X123354Y13195D01*
X124255Y15368D01*
X124804Y17655D01*
X124988Y20000D01*
X124804Y22345D01*
X124255Y24632D01*
X123354Y26805D01*
X122126Y28810D01*
X120598Y30598D01*
X118810Y32126D01*
X116805Y33354D01*
X114632Y34255D01*
X112345Y34804D01*
X110000Y34988D01*
D02*
G37*
%LPD*%
G36*
X461866Y331782D02*
X463686Y331345D01*
X465415Y330628D01*
X467011Y329650D01*
X468435Y328435D01*
X469651Y327011D01*
X470628Y325415D01*
X471345Y323686D01*
X471782Y321866D01*
X471929Y320000D01*
X471782Y318134D01*
X471345Y316314D01*
X470628Y314584D01*
X469651Y312988D01*
X468435Y311565D01*
X467011Y310349D01*
X465415Y309371D01*
X463686Y308655D01*
X461866Y308218D01*
X460000Y308071D01*
X458134Y308218D01*
X456314Y308655D01*
X454585Y309371D01*
X452988Y310349D01*
X451565Y311565D01*
X450350Y312988D01*
X449371Y314584D01*
X448655Y316314D01*
X448218Y318134D01*
X448071Y320000D01*
X448218Y321866D01*
X448655Y323686D01*
X449371Y325415D01*
X450350Y327011D01*
X451565Y328435D01*
X452988Y329650D01*
X454585Y330628D01*
X456314Y331345D01*
X458134Y331782D01*
X460000Y331929D01*
X461866Y331782D01*
D02*
G37*
%LPC*%
G36*
X460000Y327536D02*
X458530Y327392D01*
X457116Y326963D01*
X455813Y326266D01*
X454671Y325329D01*
X453734Y324187D01*
X453037Y322884D01*
X452608Y321470D01*
X452464Y320000D01*
X452608Y318530D01*
X453037Y317116D01*
X453734Y315813D01*
X454671Y314671D01*
X455813Y313734D01*
X457116Y313037D01*
X458530Y312609D01*
X460000Y312464D01*
X461470Y312609D01*
X462884Y313037D01*
X464187Y313734D01*
X465329Y314671D01*
X466266Y315813D01*
X466963Y317116D01*
X467391Y318530D01*
X467536Y320000D01*
X467391Y321470D01*
X466963Y322884D01*
X466266Y324187D01*
X465329Y325329D01*
X464187Y326266D01*
X462884Y326963D01*
X461470Y327392D01*
X460000Y327536D01*
D02*
G37*
%LPD*%
G36*
X110424Y331782D02*
X112244Y331345D01*
X113974Y330628D01*
X115570Y329650D01*
X116993Y328435D01*
X118209Y327011D01*
X119187Y325415D01*
X119903Y323686D01*
X120340Y321866D01*
X120487Y320000D01*
X120340Y318134D01*
X119903Y316314D01*
X119187Y314584D01*
X118209Y312988D01*
X116993Y311565D01*
X115570Y310349D01*
X113974Y309371D01*
X112244Y308655D01*
X110424Y308218D01*
X108558Y308071D01*
X106692Y308218D01*
X104872Y308655D01*
X103143Y309371D01*
X101547Y310349D01*
X100123Y311565D01*
X98908Y312988D01*
X97930Y314584D01*
X97213Y316314D01*
X96776Y318134D01*
X96629Y320000D01*
X96776Y321866D01*
X97213Y323686D01*
X97930Y325415D01*
X98908Y327011D01*
X100123Y328435D01*
X101547Y329650D01*
X103143Y330628D01*
X104872Y331345D01*
X106692Y331782D01*
X108558Y331929D01*
X110424Y331782D01*
D02*
G37*
%LPC*%
G36*
X108558Y327536D02*
X107088Y327392D01*
X105674Y326963D01*
X104371Y326266D01*
X103229Y325329D01*
X102292Y324187D01*
X101595Y322884D01*
X101167Y321470D01*
X101022Y320000D01*
X101167Y318530D01*
X101595Y317116D01*
X102292Y315813D01*
X103229Y314671D01*
X104371Y313734D01*
X105674Y313037D01*
X107088Y312609D01*
X108558Y312464D01*
X110028Y312609D01*
X111442Y313037D01*
X112745Y313734D01*
X113887Y314671D01*
X114824Y315813D01*
X115521Y317116D01*
X115950Y318530D01*
X116094Y320000D01*
X115950Y321470D01*
X115521Y322884D01*
X114824Y324187D01*
X113887Y325329D01*
X112745Y326266D01*
X111442Y326963D01*
X110028Y327392D01*
X108558Y327536D01*
D02*
G37*
%LPD*%
G36*
X461866Y31782D02*
X463686Y31345D01*
X465415Y30628D01*
X467011Y29651D01*
X468435Y28435D01*
X469651Y27011D01*
X470628Y25416D01*
X471345Y23686D01*
X471782Y21866D01*
X471929Y20000D01*
X471782Y18134D01*
X471345Y16314D01*
X470628Y14584D01*
X469651Y12989D01*
X468435Y11565D01*
X467011Y10350D01*
X465415Y9371D01*
X463686Y8655D01*
X461866Y8218D01*
X460000Y8071D01*
X458134Y8218D01*
X456314Y8655D01*
X454585Y9371D01*
X452988Y10350D01*
X451565Y11565D01*
X450350Y12989D01*
X449371Y14584D01*
X448655Y16314D01*
X448218Y18134D01*
X448071Y20000D01*
X448218Y21866D01*
X448655Y23686D01*
X449371Y25416D01*
X450350Y27011D01*
X451565Y28435D01*
X452988Y29651D01*
X454585Y30628D01*
X456314Y31345D01*
X458134Y31782D01*
X460000Y31929D01*
X461866Y31782D01*
D02*
G37*
%LPC*%
G36*
X460000Y27536D02*
X458530Y27391D01*
X457116Y26963D01*
X455813Y26266D01*
X454671Y25329D01*
X453734Y24187D01*
X453037Y22884D01*
X452608Y21470D01*
X452464Y20000D01*
X452608Y18530D01*
X453037Y17116D01*
X453734Y15813D01*
X454671Y14671D01*
X455813Y13734D01*
X457116Y13037D01*
X458530Y12608D01*
X460000Y12464D01*
X461470Y12608D01*
X462884Y13037D01*
X464187Y13734D01*
X465329Y14671D01*
X466266Y15813D01*
X466963Y17116D01*
X467391Y18530D01*
X467536Y20000D01*
X467391Y21470D01*
X466963Y22884D01*
X466266Y24187D01*
X465329Y25329D01*
X464187Y26266D01*
X462884Y26963D01*
X461470Y27391D01*
X460000Y27536D01*
D02*
G37*
%LPD*%
G36*
X111866Y31782D02*
X113686Y31345D01*
X115416Y30628D01*
X117011Y29651D01*
X118435Y28435D01*
X119650Y27011D01*
X120628Y25416D01*
X121345Y23686D01*
X121782Y21866D01*
X121929Y20000D01*
X121782Y18134D01*
X121345Y16314D01*
X120628Y14584D01*
X119650Y12989D01*
X118435Y11565D01*
X117011Y10350D01*
X115416Y9371D01*
X113686Y8655D01*
X111866Y8218D01*
X110000Y8071D01*
X108134Y8218D01*
X106314Y8655D01*
X104585Y9371D01*
X102989Y10350D01*
X101565Y11565D01*
X100349Y12989D01*
X99371Y14584D01*
X98655Y16314D01*
X98218Y18134D01*
X98071Y20000D01*
X98218Y21866D01*
X98655Y23686D01*
X99371Y25416D01*
X100349Y27011D01*
X101565Y28435D01*
X102989Y29651D01*
X104585Y30628D01*
X106314Y31345D01*
X108134Y31782D01*
X110000Y31929D01*
X111866Y31782D01*
D02*
G37*
%LPC*%
G36*
X110000Y27536D02*
X108530Y27391D01*
X107116Y26963D01*
X105813Y26266D01*
X104671Y25329D01*
X103734Y24187D01*
X103037Y22884D01*
X102609Y21470D01*
X102464Y20000D01*
X102609Y18530D01*
X103037Y17116D01*
X103734Y15813D01*
X104671Y14671D01*
X105813Y13734D01*
X107116Y13037D01*
X108530Y12608D01*
X110000Y12464D01*
X111470Y12608D01*
X112884Y13037D01*
X114187Y13734D01*
X115329Y14671D01*
X116266Y15813D01*
X116963Y17116D01*
X117392Y18530D01*
X117536Y20000D01*
X117392Y21470D01*
X116963Y22884D01*
X116266Y24187D01*
X115329Y25329D01*
X114187Y26266D01*
X112884Y26963D01*
X111470Y27391D01*
X110000Y27536D01*
D02*
G37*
%LPD*%
D10*
X122000Y320000D02*
G03*
X122000Y320000I-13442J0D01*
G01*
X123442Y20000D02*
G03*
X123442Y20000I-13442J0D01*
G01*
X473442D02*
G03*
X473442Y20000I-13442J0D01*
G01*
Y320000D02*
G03*
X473442Y320000I-13442J0D01*
G01*
D11*
X372769Y25843D02*
Y58769D01*
X353084Y25843D02*
Y59084D01*
X333399Y25843D02*
Y59399D01*
X313685Y25843D02*
Y59685D01*
X294000Y25843D02*
Y60000D01*
D12*
X211000Y25843D02*
X243000D01*
X190842Y285157D02*
Y312000D01*
X620843Y288000D02*
X626000Y293158D01*
X625157Y233000D02*
X626000Y233842D01*
X597000Y233000D02*
X625157D01*
X572500D02*
X597000D01*
X562500Y230500D02*
Y233000D01*
X557000Y225000D02*
X562500Y230500D01*
X545000Y225000D02*
X557000D01*
X527000Y233000D02*
X537000D01*
X545000Y225000D01*
X620843Y209000D02*
X626000Y214158D01*
X523000Y209000D02*
X620843D01*
X517000Y215000D02*
X523000Y209000D01*
X625157Y193500D02*
X626000Y194343D01*
X597000Y193500D02*
X625157D01*
X572500D02*
X597000D01*
X562500Y191000D02*
Y193500D01*
X557000Y185500D02*
X562500Y191000D01*
X545000Y185500D02*
X557000D01*
X527000Y193500D02*
X537000D01*
X545000Y185500D01*
X620843Y169500D02*
X626000Y174657D01*
X523000Y169500D02*
X620843D01*
X517000Y175500D02*
X523000Y169500D01*
X625157Y154000D02*
X626000Y154842D01*
X597000Y154000D02*
X625157D01*
X572500D02*
X597000D01*
X562500Y151500D02*
Y154000D01*
X557000Y146000D02*
X562500Y151500D01*
X545000Y146000D02*
X557000D01*
X527000Y154000D02*
X537000D01*
X545000Y146000D01*
X620843Y130000D02*
X626000Y135158D01*
X523000Y130000D02*
X620843D01*
X517000Y136000D02*
X523000Y130000D01*
X625157Y114500D02*
X626000Y115342D01*
X597000Y114500D02*
X625157D01*
X572500D02*
X597000D01*
X562500Y112000D02*
Y114500D01*
X557000Y106500D02*
X562500Y112000D01*
X545000Y106500D02*
X557000D01*
X527000Y114500D02*
X537000D01*
X545000Y106500D01*
X620843Y90500D02*
X626000Y95657D01*
X523000Y90500D02*
X620843D01*
X517000Y96500D02*
X523000Y90500D01*
X625157Y75000D02*
X626000Y75842D01*
X597000Y75000D02*
X625157D01*
X572500D02*
X597000D01*
X562500Y72500D02*
Y75000D01*
X557000Y67000D02*
X562500Y72500D01*
X545000Y67000D02*
X557000D01*
X527000Y75000D02*
X537000D01*
X545000Y67000D01*
X620843Y51000D02*
X626000Y56157D01*
X523000Y51000D02*
X620843D01*
X517000Y57000D02*
X523000Y51000D01*
X625157Y36000D02*
X626000Y36843D01*
X597000Y36000D02*
X625157D01*
X572500D02*
X597000D01*
X562500Y33500D02*
Y36000D01*
X557000Y28000D02*
X562500Y33500D01*
X545000Y28000D02*
X557000D01*
X527000Y36000D02*
X537000D01*
X545000Y28000D01*
X620843Y12000D02*
X626000Y17157D01*
X523000Y12000D02*
X620843D01*
X517000Y18000D02*
X523000Y12000D01*
X625157Y272500D02*
X626000Y273342D01*
X597000Y272500D02*
X625157D01*
X572500D02*
X597000D01*
X562500Y270000D02*
Y272500D01*
X557000Y264500D02*
X562500Y270000D01*
X545000Y264500D02*
X557000D01*
X527000Y272500D02*
X537000D01*
X545000Y264500D01*
X620843Y248500D02*
X626000Y253658D01*
X523000Y248500D02*
X620843D01*
X517000Y254500D02*
X523000Y248500D01*
X625157Y312000D02*
X626000Y312842D01*
X597000Y312000D02*
X625157D01*
X523000Y288000D02*
X620843D01*
X517000Y294000D02*
X523000Y288000D01*
X527000Y312000D02*
X537000D01*
X545000Y304000D01*
X562500Y309500D02*
Y312000D01*
X545000Y304000D02*
X557000D01*
X562500Y309500D01*
X572500Y312000D02*
X597000D01*
D13*
X28158Y12000D02*
X58000D01*
X28158Y51500D02*
X58000D01*
X28158Y91000D02*
X58000D01*
X28158Y130500D02*
X58000D01*
X28158Y170000D02*
X58000D01*
X28158Y209500D02*
X58000D01*
X28158Y249000D02*
X58000D01*
X28158Y288500D02*
X58000D01*
X489000Y233000D02*
X507000Y215000D01*
X488000Y233000D02*
X489000D01*
Y193500D02*
X507000Y175500D01*
X488000Y193500D02*
X489000D01*
Y154000D02*
X507000Y136000D01*
X488000Y154000D02*
X489000D01*
Y114500D02*
X507000Y96500D01*
X488000Y114500D02*
X489000D01*
Y75000D02*
X507000Y57000D01*
X488000Y75000D02*
X489000D01*
Y36000D02*
X507000Y18000D01*
X488000Y36000D02*
X489000D01*
Y272500D02*
X507000Y254500D01*
X488000Y272500D02*
X489000D01*
X488000Y312000D02*
X489000D01*
X507000Y294000D01*
D14*
X171158Y312000D02*
D03*
X294000Y25843D02*
D03*
X333399D02*
D03*
X429379D02*
D03*
X210842D02*
D03*
D15*
X190842Y312000D02*
D03*
X313685Y25843D02*
D03*
X353084D02*
D03*
X372769D02*
D03*
X626000Y214158D02*
D03*
Y174657D02*
D03*
Y135158D02*
D03*
Y95657D02*
D03*
Y56157D02*
D03*
Y17157D02*
D03*
Y253658D02*
D03*
Y293158D02*
D03*
X409694Y25843D02*
D03*
X191157D02*
D03*
X28000Y308343D02*
D03*
Y268843D02*
D03*
Y229343D02*
D03*
Y189843D02*
D03*
Y150343D02*
D03*
Y110843D02*
D03*
Y71343D02*
D03*
Y31843D02*
D03*
D16*
X460000Y20000D02*
D03*
Y320000D02*
D03*
X110000Y20000D02*
D03*
X108558Y320000D02*
D03*
X377000Y95000D02*
D03*
X367000D02*
D03*
X427000D02*
D03*
X417000D02*
D03*
X407000D02*
D03*
X397000D02*
D03*
X387000D02*
D03*
X287000D02*
D03*
X277000D02*
D03*
X337000D02*
D03*
X327000D02*
D03*
X317000D02*
D03*
X307000D02*
D03*
X297000D02*
D03*
X387000Y285000D02*
D03*
X397000D02*
D03*
X337000D02*
D03*
X347000D02*
D03*
X357000D02*
D03*
X367000D02*
D03*
X377000D02*
D03*
X237000Y95000D02*
D03*
X227000D02*
D03*
X217000D02*
D03*
X207000D02*
D03*
X197000D02*
D03*
X211000Y285000D02*
D03*
X221000D02*
D03*
X161000D02*
D03*
X171000D02*
D03*
X181000D02*
D03*
X191000D02*
D03*
X201000D02*
D03*
X297000D02*
D03*
X307000D02*
D03*
X247000D02*
D03*
X257000D02*
D03*
X267000D02*
D03*
X277000D02*
D03*
X287000D02*
D03*
X447000D02*
D03*
X437000D02*
D03*
X447000Y275000D02*
D03*
X437000D02*
D03*
X447000Y265000D02*
D03*
X437000D02*
D03*
X447000Y255000D02*
D03*
X437000D02*
D03*
X447000Y245000D02*
D03*
X437000D02*
D03*
X447000Y235000D02*
D03*
X437000D02*
D03*
X447000Y225000D02*
D03*
X437000D02*
D03*
X447000Y215000D02*
D03*
X437000D02*
D03*
X447000Y205000D02*
D03*
X437000D02*
D03*
Y195000D02*
D03*
X447000D02*
D03*
Y185000D02*
D03*
X437000D02*
D03*
X447000Y175000D02*
D03*
X437000D02*
D03*
X447000Y165000D02*
D03*
X437000D02*
D03*
X447000Y155000D02*
D03*
X437000D02*
D03*
X447000Y145000D02*
D03*
X437000D02*
D03*
X447000Y135000D02*
D03*
X437000D02*
D03*
X447000Y125000D02*
D03*
X437000D02*
D03*
X447000Y115000D02*
D03*
X437000D02*
D03*
D17*
X626000Y233842D02*
D03*
Y194343D02*
D03*
Y154842D02*
D03*
Y115342D02*
D03*
Y75842D02*
D03*
Y36843D02*
D03*
Y273342D02*
D03*
Y312842D02*
D03*
X28000Y288657D02*
D03*
Y249158D02*
D03*
Y209658D02*
D03*
Y170158D02*
D03*
Y130657D02*
D03*
Y91158D02*
D03*
Y51657D02*
D03*
Y12157D02*
D03*
D18*
X597000Y233000D02*
D03*
X527000D02*
D03*
X597000Y193500D02*
D03*
X527000D02*
D03*
X597000Y154000D02*
D03*
X527000D02*
D03*
X597000Y114500D02*
D03*
X527000D02*
D03*
X597000Y75000D02*
D03*
X527000D02*
D03*
X597000Y36000D02*
D03*
X527000D02*
D03*
X597000Y272500D02*
D03*
X527000D02*
D03*
X597000Y312000D02*
D03*
X527000D02*
D03*
D19*
X572500Y233000D02*
D03*
X562500D02*
D03*
X552500D02*
D03*
X507000Y215000D02*
D03*
X517000D02*
D03*
X527000D02*
D03*
X572500Y193500D02*
D03*
X562500D02*
D03*
X552500D02*
D03*
X507000Y175500D02*
D03*
X517000D02*
D03*
X527000D02*
D03*
X572500Y154000D02*
D03*
X562500D02*
D03*
X552500D02*
D03*
X507000Y136000D02*
D03*
X517000D02*
D03*
X527000D02*
D03*
X572500Y114500D02*
D03*
X562500D02*
D03*
X552500D02*
D03*
X507000Y96500D02*
D03*
X517000D02*
D03*
X527000D02*
D03*
X572500Y75000D02*
D03*
X562500D02*
D03*
X552500D02*
D03*
X507000Y57000D02*
D03*
X517000D02*
D03*
X527000D02*
D03*
X572500Y36000D02*
D03*
X562500D02*
D03*
X552500D02*
D03*
X507000Y18000D02*
D03*
X517000D02*
D03*
X527000D02*
D03*
X572500Y272500D02*
D03*
X562500D02*
D03*
X552500D02*
D03*
X507000Y254500D02*
D03*
X517000D02*
D03*
X527000D02*
D03*
X572500Y312000D02*
D03*
X562500D02*
D03*
X552500D02*
D03*
X507000Y294000D02*
D03*
X517000D02*
D03*
X527000D02*
D03*
D20*
X357000Y95000D02*
D03*
X267000D02*
D03*
X407000Y285000D02*
D03*
X247000Y95000D02*
D03*
X231000Y285000D02*
D03*
X317000D02*
D03*
D21*
X327551Y184803D02*
D03*
X317551D02*
D03*
X327551Y194803D02*
D03*
X317551D02*
D03*
X327551Y204803D02*
D03*
X317551D02*
D03*
D22*
X263000Y25843D02*
D03*
D23*
X243000D02*
D03*
D24*
X488000Y312000D02*
D03*
X518000D02*
D03*
X488000Y272500D02*
D03*
X518000D02*
D03*
X488000Y233000D02*
D03*
X518000D02*
D03*
X488000Y193500D02*
D03*
X518000D02*
D03*
X488000Y154000D02*
D03*
X518000D02*
D03*
X488000Y114500D02*
D03*
X518000D02*
D03*
X488000Y75000D02*
D03*
X518000D02*
D03*
X488000Y36000D02*
D03*
X518000D02*
D03*
X88000Y288500D02*
D03*
X58000D02*
D03*
X88000Y249000D02*
D03*
X58000D02*
D03*
X88000Y209500D02*
D03*
X58000D02*
D03*
X88000Y170000D02*
D03*
X58000D02*
D03*
X88000Y130500D02*
D03*
X58000D02*
D03*
X88000Y91000D02*
D03*
X58000D02*
D03*
X88000Y51500D02*
D03*
X58000D02*
D03*
X88000Y12000D02*
D03*
X58000D02*
D03*
D25*
X422000Y285000D02*
D03*
X447000Y95000D02*
D03*
X327000Y115000D02*
D03*
Y225000D02*
D03*
X122000Y95000D02*
D03*
X127000Y285000D02*
D03*
D26*
X448000Y48000D02*
D03*
X372769Y58769D02*
D03*
X353084Y59084D02*
D03*
X333399Y59399D02*
D03*
X313685Y59685D02*
D03*
X294000Y60000D02*
D03*
D27*
X442000Y48000D02*
X448000D01*
X429379Y35379D02*
X442000Y48000D01*
X429379Y25843D02*
Y35379D01*
M02*
